<svg width="271" height="261" viewBox="0 0 271 261" fill="none" xmlns="http://www.w3.org/2000/svg">
<path d="M230.071 127.482C177.198 96.9525 91.7519 96.9525 39.217 127.482C-13.3179 158.012 -13.0325 207.507 39.8401 238.031C92.7127 268.555 178.165 268.561 230.694 238.031C283.223 207.502 282.949 158.012 230.071 127.482Z" fill="#F5F5F5"/>
<path d="M249.165 181.164C253.067 178.917 259.367 178.917 263.245 181.164C267.123 183.412 267.1 187.063 263.199 189.317C259.297 191.57 252.997 191.57 249.119 189.317C245.241 187.063 245.264 183.43 249.165 181.164Z" fill="#E0E0E0"/>
<path d="M138.241 184.454L131.026 174.648C130.298 173.658 129.365 172.837 128.291 172.24C127.217 171.643 126.027 171.285 124.801 171.19L114.169 170.374L97.2821 160.109L103.6 156.458C103.683 156.405 103.751 156.332 103.799 156.246C103.846 156.16 103.871 156.064 103.871 155.965C103.871 155.867 103.846 155.771 103.799 155.685C103.751 155.599 103.683 155.526 103.6 155.473L100.974 153.977C100.456 153.681 99.87 153.525 99.2735 153.525C98.6771 153.525 98.0909 153.681 97.5732 153.977L35.6459 189.782C35.5629 189.835 35.4946 189.908 35.4472 189.994C35.3998 190.08 35.375 190.176 35.375 190.274C35.375 190.373 35.3998 190.469 35.4472 190.555C35.4946 190.641 35.5629 190.714 35.6459 190.766L38.208 192.246C38.7274 192.546 39.3169 192.704 39.9171 192.704C40.5172 192.704 41.1067 192.546 41.6261 192.246L68.5049 176.721L85.1645 186.277L87.3423 192.409C88.0127 194.291 89.2489 195.92 90.8815 197.072C92.514 198.223 94.463 198.842 96.461 198.843H112.008L122.56 204.934L148.053 190.114L138.241 184.454Z" fill="#E0E0E0"/>
<path d="M233.099 175.405C216.247 165.681 189.013 165.681 172.272 175.405C157.476 184 155.834 197.312 167.276 207.013C158.041 206.43 148.479 208.177 141.428 212.294C129.054 219.485 129.118 231.143 141.573 238.334C154.029 245.526 174.182 245.52 186.527 238.334C196.368 232.61 198.33 224.062 192.454 217.185C206.639 219.241 222.251 217.057 233.303 210.64C250.044 200.916 249.956 185.141 233.099 175.405Z" fill="#E0E0E0"/>
<path d="M37.4816 202.261C33.0445 199.699 25.8706 199.699 21.4626 202.261C17.0547 204.823 17.0779 208.981 21.515 211.543C25.9522 214.105 33.1261 214.105 37.534 211.543C41.942 208.981 41.9246 204.823 37.4816 202.261Z" fill="#E0E0E0"/>
<path d="M80.6827 1.78183L83.798 0L83.9902 68.0939L83.9844 68.0997L58.8757 82.4358L58.8641 78.8722L58.6777 14.342L80.6827 1.78183Z" fill="#F0F0F0"/>
<path opacity="0.1" d="M80.8699 66.3062L80.6836 1.78183L83.7989 0L83.991 68.0938L83.9852 68.0997L80.8583 66.312L80.8699 66.3062Z" fill="black"/>
<path opacity="0.2" d="M58.8633 78.8722L80.8567 66.312L83.9836 68.0997L58.8749 82.4358L58.8633 78.8722Z" fill="black"/>
<path d="M46.3214 21.3994L49.4367 19.6176L49.6289 87.7114L49.623 87.7172L24.5144 102.053L24.5027 98.4897L24.3164 33.9595L46.3214 21.3994Z" fill="#F0F0F0"/>
<path opacity="0.1" d="M46.5066 85.9237L46.3203 21.3994L49.4356 19.6176L49.6278 87.7114L49.6219 87.7172L46.495 85.9296L46.5066 85.9237Z" fill="black"/>
<path opacity="0.2" d="M24.502 98.4897L46.4953 85.9296L49.6223 87.7172L24.5136 102.053L24.502 98.4897Z" fill="black"/>
<path d="M153.28 39.9979C153.088 39.7941 152.902 39.5845 152.698 39.369L152.576 39.2293C152.267 38.8741 151.993 38.5131 151.679 38.1404L151.586 38.0181C151.353 37.7211 151.131 37.4358 150.91 37.1039L150.811 36.97C150.602 36.6672 150.398 36.3877 150.2 36.0499C150.147 35.9743 150.101 35.8986 150.054 35.8229C149.891 35.5666 149.734 35.3104 149.583 35.0484C149.546 34.9962 149.513 34.9417 149.484 34.8854C149.309 34.5884 149.14 34.3031 148.977 33.9828L148.861 33.7499C148.732 33.5111 148.61 33.2666 148.488 33.022L148.371 32.7774C148.22 32.4688 148.08 32.1602 147.94 31.8458L147.888 31.7118C147.766 31.4265 147.649 31.1295 147.539 30.8617L147.44 30.6055C147.312 30.2677 147.189 29.93 147.079 29.5923C147.079 29.5923 147.079 29.5399 147.05 29.5107C146.933 29.1614 146.828 28.812 146.729 28.4626L146.677 28.2646C146.56 27.857 146.461 27.4494 146.374 27.0476C146.374 26.9545 146.339 26.8671 146.316 26.7798L146.229 26.3023C146.229 26.2033 146.188 26.1043 146.176 25.9995C146.176 25.8365 146.124 25.6734 146.1 25.5104C146.077 25.3473 146.071 25.3182 146.06 25.2192C146.013 24.8698 145.984 24.5205 145.955 24.1769C145.955 24.1012 145.955 24.0255 145.955 23.9556C145.955 23.6004 145.92 23.2452 145.92 22.8959C145.92 22.6571 145.92 22.4184 145.92 22.1913V21.9292C145.92 21.7895 145.92 21.6439 145.955 21.51C145.99 21.3761 145.955 21.3353 145.984 21.248C146.013 21.1606 145.984 20.9801 146.031 20.852C146.077 20.7239 146.065 20.6715 146.077 20.5841C146.089 20.4968 146.118 20.3454 146.141 20.2289C146.164 20.1125 146.182 20.0484 146.199 19.9553C146.217 19.8621 146.252 19.7398 146.275 19.6292C146.298 19.5185 146.328 19.4545 146.351 19.3671C146.374 19.2798 146.409 19.1633 146.444 19.0643L146.531 18.8081C146.566 18.715 146.595 18.616 146.636 18.5228C146.677 18.4296 146.706 18.3656 146.735 18.2841C146.764 18.2025 146.811 18.1035 146.852 18.0162C146.892 17.9289 146.927 17.8648 146.968 17.7891C147.009 17.7134 147.05 17.6202 147.096 17.5387L147.224 17.3291L147.364 17.0903L147.504 16.8924C147.556 16.8225 147.603 16.7468 147.661 16.6769C147.719 16.607 147.76 16.5546 147.812 16.4906C147.865 16.4265 147.917 16.3567 147.975 16.2926C148.034 16.2285 148.086 16.1761 148.138 16.1179L148.313 15.9374L148.488 15.7802L148.674 15.6171L148.861 15.4774L149.059 15.3318L149.251 15.2037C149.85 14.8294 150.51 14.5633 151.201 14.4176C149.891 15.8908 149.123 18.1327 149.111 21.0209C149.111 21.3702 149.111 21.7254 149.146 22.0806C149.146 22.1563 149.146 22.2262 149.146 22.3019C149.146 22.6455 149.204 22.9948 149.251 23.3442C149.251 23.4432 149.28 23.5422 149.291 23.6354C149.303 23.7285 149.338 23.9615 149.367 24.1245C149.396 24.2875 149.402 24.3458 149.425 24.4564L149.513 24.9339C149.513 25.0212 149.553 25.1086 149.571 25.2018C149.658 25.6035 149.757 26.0111 149.868 26.4188C149.891 26.4857 149.91 26.5537 149.926 26.6226C150.025 26.9661 150.13 27.3155 150.246 27.6649C150.246 27.6649 150.246 27.7231 150.276 27.7464C150.386 28.0899 150.508 28.4277 150.637 28.7596C150.671 28.8469 150.701 28.9343 150.736 29.0158C150.846 29.3011 150.963 29.5981 151.085 29.8659L151.137 29.9999C151.277 30.3143 151.417 30.6229 151.568 30.9316C151.603 31.0131 151.644 31.0946 151.685 31.1761C151.807 31.4207 151.929 31.6653 152.057 31.9098L152.174 32.1369C152.337 32.4397 152.506 32.7192 152.68 33.0395C152.71 33.0977 152.744 33.1501 152.779 33.2083C152.931 33.4646 153.088 33.7266 153.251 33.9828L153.391 34.2041C153.595 34.5127 153.798 34.8213 154.008 35.1241L154.107 35.258C154.328 35.5725 154.55 35.8753 154.782 36.1781L154.876 36.3003C155.167 36.673 155.458 37.034 155.772 37.3892L155.889 37.529L156.471 38.1637L156.506 38.1986C156.71 38.4141 156.92 38.6295 157.129 38.8333C157.17 38.8799 157.216 38.9207 157.263 38.9673C157.537 39.2293 157.81 39.4913 158.096 39.7417L158.171 39.8116C158.463 40.0678 158.754 40.3065 159.057 40.5453L159.231 40.6792C159.522 40.9063 159.814 41.1218 160.128 41.3314L160.285 41.4362C160.605 41.6458 160.926 41.8496 161.246 42.0185C161.566 42.1874 161.764 42.3038 162.02 42.4378L162.236 42.5426L162.818 42.8104L163.022 42.8978L163.558 43.1016L163.692 43.1482C163.913 43.2239 164.134 43.2937 164.35 43.352L164.734 43.4451L164.909 43.4917C165.095 43.5325 165.275 43.5616 165.456 43.5907C165.726 43.6346 165.998 43.6618 166.271 43.6722H166.434C166.673 43.6722 166.906 43.6722 167.139 43.6722H167.255C167.441 43.6602 167.625 43.6388 167.808 43.6082H167.977L168.152 43.5674C167.72 44.0587 167.211 44.4758 166.644 44.8019L166.586 44.831H166.545C166.399 44.9125 166.248 44.9824 166.097 45.0523L165.939 45.1163C165.78 45.1823 165.617 45.2405 165.45 45.291H165.363C165.171 45.3434 164.973 45.39 164.781 45.4249H164.623C164.443 45.4249 164.268 45.4715 164.082 45.489H163.942C163.715 45.489 163.482 45.489 163.249 45.489H163.098H162.713L162.271 45.4366L161.991 45.3842L161.723 45.3318L161.56 45.291H161.514L161.17 45.2095C160.955 45.1454 160.739 45.0814 160.524 45.0057L160.39 44.9591L159.848 44.7553L159.656 44.6738C159.462 44.5922 159.268 44.5049 159.074 44.4117L158.946 44.3477C158.913 44.3357 158.882 44.3201 158.853 44.3011C158.597 44.173 158.34 44.0391 158.078 43.8877C157.816 43.7363 157.438 43.4975 157.123 43.3054H157.077L156.96 43.2297C156.657 43.0201 156.378 42.8046 156.064 42.5775L155.953 42.4902L155.889 42.4436C155.592 42.2048 155.307 41.9603 155.004 41.7099C154.987 41.6959 154.971 41.6803 154.957 41.6633H154.928C154.643 41.4187 154.346 41.1567 154.095 40.8947L153.961 40.7607C153.752 40.5569 153.542 40.3415 153.338 40.126L153.28 39.9979Z" fill="#EBEBEB"/>
<path d="M167.982 33.3539V34.105L170.096 35.322V34.5709L167.982 33.3539Z" fill="white"/>
<path d="M150.892 17.562L150.566 18.0162L152.395 20.293L152.721 19.833L150.892 17.562Z" fill="white"/>
<path d="M171.885 35.9801C171.885 43.7072 166.394 46.8225 159.657 42.9677C152.919 39.1128 147.516 29.6505 147.533 21.9234C147.551 14.1963 153.024 11.0811 159.761 14.9359C166.499 18.7907 171.908 28.253 171.885 35.9801ZM154.183 28.5209C154.234 28.6844 154.341 28.8246 154.486 28.9168C154.525 28.9408 154.569 28.9549 154.614 28.9576L159.785 29.3652C159.821 29.3756 159.859 29.3738 159.894 29.3601C159.929 29.3464 159.958 29.3216 159.977 29.2895L163.36 23.5539C163.391 23.4527 163.394 23.3451 163.368 23.2425C163.342 23.1399 163.289 23.0463 163.215 22.9716C163.173 22.9231 163.124 22.8818 163.069 22.8493C162.952 22.7852 162.836 22.7911 162.778 22.89L159.453 28.5325L154.358 28.1307C154.195 28.1307 154.113 28.2938 154.183 28.5267V28.5209ZM164.129 23.4607L165.189 21.97L164.606 21.2713L163.587 22.7794L164.169 23.4782L164.129 23.4607ZM164.606 42.333L165.189 42.2864L164.082 39.5496L163.5 39.5961L164.548 42.3097L164.606 42.333ZM150.858 30.1455L152.692 29.9882L152.372 29.1497L150.532 29.307L150.858 30.1455ZM168.525 40.3473L168.851 39.8873L167.023 37.6105L166.697 38.0705L168.525 40.3473ZM150.893 17.5387L150.567 17.9929L152.395 20.2697L152.722 19.8097L150.893 17.5387ZM167.052 28.7538L168.886 28.5966L168.56 27.7639L166.726 27.9153L167.052 28.7538ZM154.824 15.5939L154.241 15.6404L155.289 18.3539L155.872 18.3074L154.818 15.5939H154.824ZM154.765 36.6381L155.831 35.1416L155.249 34.4486L154.183 35.9393L154.765 36.6381ZM151.435 24.5263V23.7984L149.321 22.5814V23.3268L151.435 24.5496V24.5263ZM170.097 34.5767L167.984 33.3539V34.1051L170.097 35.3221V34.5767ZM159.354 40.7025L160 41.0752V38.647L159.354 38.2685V40.7025ZM160.07 17.201L159.424 16.8283V19.2856L160.07 19.6641V17.2301" fill="#E0E0E0"/>
<path d="M159.416 16.8284L159.41 19.2566L160.056 19.635L160.068 17.201L159.416 16.8284Z" fill="white"/>
<path d="M164.654 21.2654L163.588 22.7561L164.153 23.4548L165.213 21.9641L164.654 21.2654Z" fill="white"/>
<path d="M168.559 27.7639L166.725 27.9153L167.051 28.7538L168.885 28.5966L168.559 27.7639Z" fill="white"/>
<path d="M167.023 37.6106L166.697 38.0706L168.526 40.3474L168.852 39.8874L167.023 37.6106Z" fill="white"/>
<path d="M164.104 39.5496L163.539 39.5961L164.587 42.3096L165.152 42.2631L164.104 39.5496Z" fill="white"/>
<path d="M159.359 38.2686L159.354 40.7026L160 41.0752L160.006 38.647L159.359 38.2686Z" fill="white"/>
<path d="M155.271 34.4487L154.205 35.9394L154.764 36.6382L155.83 35.1417L155.271 34.4487Z" fill="white"/>
<path d="M152.365 29.1498L150.531 29.307L150.857 30.1455L152.692 29.9883L152.365 29.1498Z" fill="white"/>
<path d="M149.32 22.5815V23.3269L151.434 24.5497V23.7985L149.32 22.5815Z" fill="white"/>
<path d="M154.825 15.5939L154.266 15.6405L155.314 18.354L155.879 18.3074L154.825 15.5939Z" fill="white"/>
<path d="M159.708 28.6025C159.669 28.5784 159.625 28.5644 159.579 28.5617H159.475L154.379 28.1599C154.216 28.1599 154.135 28.323 154.205 28.5559C154.256 28.7194 154.363 28.8596 154.508 28.9518C154.546 28.9759 154.59 28.9899 154.636 28.9926L159.807 29.4002C159.97 29.4002 160.045 29.243 159.975 29.0101C159.938 28.8464 159.843 28.7017 159.708 28.6025Z" fill="white"/>
<path d="M163.091 22.8435C162.974 22.7795 162.858 22.7853 162.8 22.8843L159.475 28.5268H159.579C159.625 28.5295 159.669 28.5435 159.708 28.5675C159.852 28.6588 159.957 28.7997 160.005 28.9635C160.074 29.1964 160.004 29.3711 159.836 29.3536C159.872 29.364 159.91 29.3623 159.945 29.3486C159.979 29.3349 160.009 29.31 160.028 29.2779L163.411 23.5423C163.442 23.4412 163.445 23.3335 163.419 23.2309C163.393 23.1284 163.34 23.0347 163.265 22.96C163.215 22.9109 163.155 22.8714 163.091 22.8435Z" fill="#F5F5F5"/>
<path d="M168.048 45.489L168.24 45.3376C168.312 45.2822 168.381 45.2219 168.444 45.1571C168.508 45.1047 168.572 45.0523 168.631 44.9941L168.823 44.7961L168.997 44.6097C169.062 44.5418 169.122 44.4699 169.178 44.3943C169.23 44.3302 169.289 44.2662 169.341 44.1963C169.393 44.1264 169.452 44.0391 169.504 43.9634C169.556 43.8877 169.609 43.8237 169.655 43.748C169.702 43.6723 169.76 43.5791 169.807 43.4917C169.853 43.4044 169.906 43.3403 169.947 43.2646C169.987 43.1889 170.04 43.0841 170.086 42.991L170.214 42.7464L170.337 42.4553C170.372 42.3679 170.412 42.2864 170.447 42.199C170.482 42.1117 170.523 41.9894 170.558 41.8846C170.593 41.7798 170.628 41.7041 170.657 41.6167C170.686 41.5294 170.721 41.3955 170.75 41.2848C170.779 41.1742 170.808 41.0985 170.832 40.9995C170.855 40.9005 170.89 40.7724 170.913 40.656L170.983 40.3532C170.983 40.2309 171.024 40.1028 171.047 39.9805L171.099 39.6777L171.152 39.2468L171.187 38.9731L171.222 38.4782V38.2394C171.222 37.991 171.222 37.7348 171.222 37.4708C171.222 37.0923 171.222 36.7138 171.187 36.3062C171.184 36.281 171.184 36.2557 171.187 36.2305C171.158 35.8054 171.123 35.3745 171.065 34.9378V34.7922L170.96 34.0876C170.96 33.9712 170.919 33.8547 170.896 33.7324C170.861 33.5636 170.832 33.3889 170.797 33.2142V33.1327C170.592 32.1597 170.331 31.1993 170.016 30.2561C169.596 28.987 169.09 27.7478 168.502 26.5469L168.467 26.4712C168.13 25.7899 167.775 25.1144 167.39 24.4564L167.285 24.2759C167.111 23.979 166.93 23.6936 166.75 23.4025L166.622 23.1987C166.121 22.4242 165.597 21.6789 165.038 20.9627C164.49 20.26 163.908 19.5865 163.291 18.9421C163.064 18.6975 162.831 18.4646 162.598 18.2259L162.481 18.121C162.179 17.8183 161.87 17.5387 161.55 17.2476H161.515C161.189 16.9565 160.851 16.6653 160.513 16.4091L160.333 16.2635C160.013 16.019 159.692 15.786 159.36 15.5648L159.325 15.5356C159.116 15.3959 158.906 15.2561 158.697 15.128C158.487 14.9999 158.336 14.9009 158.149 14.7961C157.87 14.6331 157.567 14.4875 157.316 14.3478C156.522 13.9415 155.689 13.6139 154.83 13.3695L154.603 13.3113L154.242 13.2239L153.992 13.1773L153.654 13.1191H153.625H153.38L152.949 13.0725H152.914H152.78C152.468 13.0551 152.155 13.0551 151.843 13.0725H151.709C151.511 13.0725 151.313 13.1075 151.127 13.1366C150.851 13.1762 150.579 13.2346 150.311 13.3113H150.265H150.212C150.032 13.3695 149.857 13.4336 149.683 13.5034L149.601 13.5384C149.362 13.6432 149.124 13.7538 148.896 13.8819L152.122 12.0069L152.192 11.9662L152.28 11.9196C152.437 11.8381 152.6 11.7565 152.763 11.6867C152.793 11.6688 152.824 11.6532 152.856 11.6401H152.932C153.126 11.5624 153.32 11.4926 153.514 11.4305C153.731 11.3683 153.95 11.3178 154.172 11.2791H154.248H154.353C154.545 11.2447 154.74 11.2214 154.935 11.2092H155.034H155.063C155.317 11.1946 155.572 11.1946 155.826 11.2092H155.902H156.152H156.327C156.501 11.2092 156.682 11.2441 156.862 11.2732L157.445 11.3839L157.631 11.4305L158.009 11.5236H158.044C158.277 11.5877 158.516 11.6575 158.755 11.7391L158.9 11.7973C159.093 11.8614 159.285 11.9371 159.483 12.0186L159.564 12.0477L159.71 12.1117C159.914 12.1991 160.123 12.2981 160.333 12.3971L160.572 12.5135C160.845 12.6533 161.154 12.7988 161.404 12.9619C161.655 13.1249 162.097 13.3811 162.441 13.6141L162.615 13.7305C162.941 13.9518 163.268 14.1847 163.588 14.4293L163.768 14.5749C164.094 14.8311 164.415 15.0931 164.729 15.3726C164.759 15.3947 164.786 15.4201 164.811 15.4483C165.119 15.7162 165.393 15.9957 165.713 16.2868L165.801 16.3683L165.859 16.4266C166.086 16.6478 166.307 16.8749 166.528 17.1137L166.563 17.1486C166.773 17.3757 166.977 17.6028 167.181 17.8357L167.239 17.8998L167.309 17.9871C167.641 18.3714 167.967 18.7616 168.281 19.1517V19.1867C168.306 19.2163 168.33 19.2474 168.351 19.2798C168.603 19.6059 168.848 19.9378 169.085 20.2755L169.16 20.3745C169.172 20.3907 169.182 20.4083 169.19 20.4269C169.422 20.7472 169.644 21.0791 169.859 21.4169C169.877 21.4501 169.899 21.4813 169.923 21.51L170.011 21.6614C170.185 21.9351 170.354 22.2437 170.523 22.4941L170.599 22.6222C170.601 22.6396 170.601 22.6572 170.599 22.6746C170.791 23.0007 170.971 23.3268 171.146 23.6529L171.187 23.7344L171.274 23.8974L171.676 24.6894C171.676 24.7418 171.728 24.8 171.757 24.8524C171.787 24.9048 171.787 24.9223 171.804 24.9514C171.961 25.2891 172.118 25.6269 172.264 25.9646C172.275 26.0005 172.289 26.0355 172.305 26.0694C172.439 26.378 172.561 26.6866 172.683 26.9953C172.683 27.0477 172.724 27.0942 172.747 27.1467C172.771 27.1991 172.776 27.2282 172.788 27.2748C172.928 27.6358 173.062 28.0026 173.184 28.3695V28.4335C173.312 28.8217 173.429 29.2099 173.533 29.5981L173.574 29.7437C173.577 29.7689 173.577 29.7942 173.574 29.8194C173.691 30.2619 173.801 30.6987 173.895 31.1354C173.897 31.1742 173.897 31.2131 173.895 31.2519L173.929 31.4265C173.964 31.5954 173.993 31.7701 174.028 31.939C174.063 32.1078 174.069 32.1777 174.092 32.3C174.116 32.4223 174.145 32.6552 174.168 32.8299C174.168 32.9114 174.197 32.9929 174.209 33.0803C174.206 33.1015 174.206 33.123 174.209 33.1443C174.256 33.5228 174.29 33.9013 174.32 34.274C174.32 34.3555 174.32 34.4312 174.32 34.5127C174.32 34.897 174.36 35.2755 174.36 35.6773C174.36 39.8291 172.881 42.7464 170.523 44.1206L167.297 45.9956L167.501 45.8617C167.571 45.8209 167.641 45.7802 167.705 45.7336L168.048 45.489Z" fill="#EBEBEB"/>
<path d="M144.936 22.2903C144.936 30.6405 150.759 40.8132 158.055 44.9999C161.816 47.1719 165.217 47.3291 167.622 45.786C167.692 45.7453 167.762 45.7045 167.826 45.6579L168.047 45.4949L168.239 45.3435C168.311 45.2881 168.379 45.2278 168.443 45.163C168.507 45.1106 168.571 45.0582 168.629 44.9999L168.821 44.802L168.996 44.6156C169.061 44.5477 169.121 44.4758 169.177 44.4002C169.229 44.3361 169.287 44.2721 169.34 44.2022C169.392 44.1323 169.45 44.045 169.503 43.9693C169.555 43.8936 169.607 43.8295 169.654 43.7538C169.701 43.6781 169.759 43.585 169.805 43.4976C169.852 43.4103 169.904 43.3462 169.945 43.2705C169.986 43.1948 170.038 43.09 170.085 42.9968L170.213 42.7523L170.335 42.4611C170.37 42.3738 170.411 42.2923 170.446 42.2049C170.481 42.1176 170.522 41.9953 170.557 41.8905C170.592 41.7857 170.627 41.71 170.656 41.6226C170.685 41.5353 170.72 41.4013 170.749 41.2907C170.778 41.1801 170.807 41.1044 170.83 41.0054C170.854 40.9064 170.889 40.7783 170.912 40.6618L170.982 40.359C170.982 40.2368 171.022 40.1086 171.046 39.9864L171.098 39.6836L171.151 39.2527L171.186 38.979L171.22 38.484V38.2453C171.22 37.9968 171.22 37.7406 171.22 37.4767C171.22 37.0982 171.22 36.7197 171.186 36.3121V36.2364C171.156 35.8113 171.121 35.3804 171.063 34.9437V34.7981L170.958 34.0935C170.958 33.9771 170.918 33.8606 170.894 33.7383C170.871 33.616 170.83 33.3948 170.795 33.2201V33.1385C170.59 32.1656 170.33 31.2051 170.015 30.262C169.595 28.9929 169.089 27.7537 168.501 26.5528L168.466 26.4771C168.128 25.7958 167.773 25.1203 167.389 24.4623L167.284 24.2818C167.109 23.9848 166.929 23.6995 166.748 23.4084L166.62 23.2046C166.12 22.4301 165.595 21.6848 165.036 20.9685C164.489 20.2659 163.907 19.5924 163.29 18.948C163.062 18.7034 162.83 18.4705 162.597 18.2317L162.48 18.1269C162.177 17.8241 161.869 17.5446 161.548 17.2535H161.514C161.187 16.9623 160.85 16.6712 160.512 16.415C160.447 16.3697 160.385 16.3211 160.326 16.2694C160.005 16.0248 159.685 15.7919 159.353 15.5706L159.318 15.5415C159.109 15.4018 158.899 15.262 158.689 15.1339C158.48 15.0058 158.328 14.9068 158.142 14.802C157.863 14.639 157.56 14.4934 157.309 14.3536C156.514 13.9474 155.682 13.6197 154.823 13.3754L154.584 13.3171L154.223 13.2298C154.136 13.2298 154.048 13.1949 153.961 13.1774L153.623 13.1192L153.35 13.0842L152.919 13.0376H152.75C152.438 13.0202 152.125 13.0202 151.812 13.0376H151.661C151.463 13.0376 151.265 13.0726 151.079 13.1017C150.803 13.1414 150.531 13.1997 150.264 13.2764H150.165C149.984 13.3346 149.809 13.3987 149.635 13.4685L149.542 13.5035C149.303 13.6083 149.064 13.7189 148.837 13.847C146.42 15.2096 144.947 18.1211 144.936 22.2903ZM153.315 40.0388L153.28 39.998C153.088 39.7942 152.901 39.5846 152.698 39.3691L152.575 39.2294C152.267 38.8742 151.993 38.5131 151.679 38.1405L151.585 38.0182C151.352 37.7154 151.131 37.4359 150.91 37.0982L150.811 36.9642C150.601 36.6614 150.398 36.3819 150.2 36.0442C150.147 35.9685 150.101 35.8928 150.054 35.8171C149.891 35.5667 149.734 35.3047 149.582 35.0427C149.546 34.9904 149.513 34.936 149.483 34.8796C149.309 34.5826 149.14 34.2973 148.977 33.9771L148.86 33.7441C148.732 33.5054 148.61 33.2608 148.488 33.0163L148.371 32.7717C148.22 32.4631 148.08 32.1545 147.94 31.84L147.888 31.7061C147.766 31.4208 147.649 31.1238 147.538 30.8559L147.439 30.5997C147.311 30.262 147.189 29.9243 147.078 29.5865C147.078 29.5865 147.078 29.5341 147.049 29.505C146.933 29.1556 146.828 28.8063 146.729 28.4569L146.677 28.2589C146.56 27.8513 146.461 27.4437 146.374 27.0419C146.374 26.9487 146.339 26.8614 146.316 26.774L146.228 26.2966C146.228 26.1976 146.187 26.0986 146.176 25.9938C146.164 25.8889 146.118 25.6502 146.094 25.4755C146.071 25.3008 146.065 25.2834 146.054 25.1844C146.007 24.835 145.978 24.4856 145.949 24.142C145.949 24.0663 145.949 23.9907 145.949 23.9208C145.949 23.5656 145.914 23.2104 145.914 22.861C145.914 22.6223 145.914 22.3835 145.914 22.1564V21.8944C145.914 21.7546 145.914 21.6091 145.949 21.4751C145.984 21.3412 145.949 21.3004 145.978 21.2131C146.007 21.1257 145.978 20.9452 146.024 20.8171C146.071 20.689 146.059 20.6366 146.071 20.5493C146.083 20.4619 146.112 20.3105 146.135 20.1941C146.158 20.0776 146.176 20.0136 146.193 19.9204C146.211 19.8272 146.246 19.7049 146.269 19.5943C146.292 19.4837 146.321 19.4196 146.345 19.3323C146.368 19.2449 146.403 19.1285 146.438 19.0295L146.525 18.7733C146.56 18.6801 146.589 18.5811 146.63 18.4879C146.671 18.3948 146.7 18.3307 146.729 18.2492C146.758 18.1677 146.805 18.0687 146.845 17.9813C146.886 17.894 146.921 17.8299 146.962 17.7542C147.003 17.6785 147.043 17.5854 147.09 17.5039L147.218 17.2942L147.358 17.0555L147.498 16.8575C147.55 16.7876 147.597 16.7119 147.655 16.6421C147.713 16.5722 147.754 16.5198 147.806 16.4557C147.859 16.3917 147.911 16.3218 147.969 16.2577C148.028 16.1937 148.08 16.1413 148.132 16.0831L148.307 15.9025L148.482 15.7453L148.668 15.5823L148.854 15.4425L149.052 15.297L149.245 15.1688C149.844 14.7945 150.504 14.5284 151.195 14.3827C153.158 13.9635 155.533 14.4235 158.095 15.9025C164.815 19.7806 170.254 29.1906 170.231 36.9177C170.231 39.8291 169.456 42.0419 168.146 43.5151C167.714 44.0064 167.205 44.4235 166.638 44.7496L166.58 44.7787C166.417 44.866 166.248 44.9475 166.079 45.0232L165.922 45.0873C165.762 45.1533 165.599 45.2115 165.432 45.262H165.345C165.147 45.3144 164.943 45.361 164.763 45.4017H164.606C164.425 45.4017 164.25 45.4483 164.064 45.4658H163.924C163.697 45.4658 163.458 45.4658 163.22 45.4658H163.068H162.684L162.241 45.4134L161.962 45.361L161.694 45.3086C161.624 45.3086 161.554 45.2736 161.484 45.2562L161.141 45.1746C160.69 45.0464 160.247 44.8928 159.813 44.7146L159.621 44.6331C159.382 44.5283 159.149 44.4235 158.911 44.3012C158.878 44.2892 158.847 44.2736 158.818 44.2546C158.561 44.1265 158.305 43.9926 158.043 43.8412C157.781 43.6898 157.403 43.451 157.088 43.2589H157.042C156.663 43.0027 156.285 42.729 155.918 42.4437L155.854 42.3971C155.539 42.1467 155.225 41.8905 154.922 41.6168H154.893C154.608 41.3722 154.311 41.1102 154.06 40.8482L153.926 40.7142C153.728 40.4697 153.519 40.2484 153.315 40.0388Z" fill="white"/>
<path d="M237.507 66.6497L237.472 80.2522L235.824 81.213L235.865 65.7064L237.507 66.6497Z" fill="#F0F0F0"/>
<path d="M255.267 90.5298L255.261 92.4339L235.824 81.213L237.472 80.2522L255.267 90.5298Z" fill="#F5F5F5"/>
<path d="M233.82 82.3486L257.252 95.8753L257.31 75.7919L233.884 62.2651L233.82 82.3486ZM235.823 81.184L235.864 65.6716L237.506 66.6207L255.307 76.9332L255.266 90.5357V92.4398L235.823 81.184Z" fill="#E0E0E0"/>
<path d="M233.879 62.265L235.527 61.3101L258.953 74.8368L257.305 75.7918L233.879 62.265Z" fill="#F5F5F5"/>
<path d="M258.952 74.8369L258.894 94.9145L257.246 95.8753L257.304 75.7919L258.952 74.8369Z" fill="#F0F0F0"/>
<path d="M238.204 39.0897L238.169 52.6921L236.516 53.6471L236.562 38.1405L238.204 39.0897Z" fill="#F0F0F0"/>
<path d="M255.964 62.9637L255.959 64.8737L236.516 53.647L238.169 52.692L255.964 62.9637Z" fill="#F5F5F5"/>
<path d="M234.543 54.8059L257.969 68.3326L258.027 48.2492L234.578 34.705L234.543 54.8059ZM236.54 53.6413L236.587 38.1347L238.206 39.0838L256.006 49.3614L255.966 62.958V64.868L236.54 53.6413Z" fill="#E0E0E0"/>
<path d="M234.578 34.7049L236.226 33.7441L259.652 47.2709L258.004 48.2317L234.578 34.7049Z" fill="#F5F5F5"/>
<path d="M259.651 47.2709L259.593 67.3543L257.945 68.3093L258.004 48.2317L259.651 47.2709Z" fill="#F0F0F0"/>
<path d="M243.167 71.8148L238.31 75.6405L238.299 79.373L254.44 88.6898L254.452 84.9573L251.377 78.849L248.617 80.9918L249.59 84.0256L248.175 81.3354L243.167 71.8148Z" fill="#E0E0E0"/>
<path d="M248.466 73.6956C247.709 73.2589 247.086 73.6141 247.086 74.4875C247.111 74.9631 247.249 75.4259 247.488 75.8379C247.727 76.2499 248.06 76.5993 248.46 76.8575C249.217 77.3 249.834 76.9448 249.84 76.0714C249.814 75.5951 249.677 75.1317 249.438 74.7189C249.199 74.306 248.866 73.9554 248.466 73.6956Z" fill="#E0E0E0"/>
<path d="M243.86 44.2545L239.01 48.0744L238.998 51.8069L255.139 61.1295L255.151 57.397L252.076 51.2828L249.311 53.4315L250.289 56.4653L248.874 53.7693L243.86 44.2545Z" fill="#E0E0E0"/>
<path d="M249.165 46.1354C248.402 45.6987 247.785 46.0481 247.785 46.9215C247.809 47.3974 247.946 47.8609 248.184 48.2738C248.422 48.6868 248.754 49.0375 249.154 49.2973C249.916 49.734 250.534 49.3846 250.534 48.5112C250.509 48.0352 250.373 47.5718 250.135 47.1588C249.897 46.7459 249.565 46.3951 249.165 46.1354Z" fill="#E0E0E0"/>
<path d="M188.833 23.4258L223.695 43.585C224.284 43.9261 224.774 44.4158 225.115 45.0054C225.457 45.5949 225.637 46.2636 225.64 46.9448V81.9991C225.62 82.6694 225.425 83.3228 225.073 83.8937C224.721 84.4647 224.226 84.9332 223.636 85.2522C223.046 85.5713 222.383 85.7298 221.712 85.7117C221.042 85.6936 220.388 85.4997 219.817 85.1493L205.259 76.5081L204.945 77.0147C204.945 77.0147 204.916 77.0438 204.898 77.0612H204.863C204.281 77.4397 203.297 77.9754 203.076 78.0919C203.024 78.1088 202.967 78.1048 202.919 78.0809C202.87 78.057 202.832 78.015 202.814 77.9638L201.544 74.3652L184.931 65.0368C184.339 64.6982 183.846 64.2092 183.504 63.6192C183.161 63.0292 182.981 62.3592 182.98 61.6769V26.5761C182.98 23.781 187.091 22.4243 188.833 23.4258Z" fill="#40BFFF"/>
<path opacity="0.2" d="M204.891 77.0146C204.891 77.0146 204.862 77.0437 204.844 77.0612H204.809C204.227 77.4397 203.243 77.9754 203.021 78.0919C203.048 78.0877 203.073 78.0777 203.095 78.0626C203.118 78.0475 203.136 78.0277 203.15 78.0045L204.378 76.013L204.134 75.8733L205.217 76.4905L204.891 77.0146Z" fill="white"/>
<path opacity="0.4" d="M221.284 47.236C221.033 46.7353 220.68 46.2929 220.247 45.9374C220.099 45.8182 219.941 45.7111 219.776 45.6172L184.914 25.4522C184.717 25.34 184.494 25.2815 184.268 25.2824C184.041 25.2833 183.819 25.3437 183.623 25.4575C183.428 25.5713 183.265 25.7345 183.152 25.9308C183.04 26.1271 182.98 26.3496 182.98 26.5761C182.98 23.781 187.091 22.4243 188.833 23.4258L223.695 43.585C224.298 43.9346 224.796 44.4392 225.139 45.0465L221.284 47.236Z" fill="white"/>
<path opacity="0.2" d="M221.732 84.0313V48.9828C221.733 48.3735 221.583 47.7734 221.296 47.2359L225.15 45.0465C225.477 45.6259 225.649 46.2796 225.651 46.9448V81.9991C225.632 82.6694 225.436 83.3227 225.084 83.8937C224.733 84.4647 224.237 84.9332 223.647 85.2522C223.058 85.5713 222.394 85.7297 221.724 85.7117C221.054 85.6936 220.4 85.4997 219.828 85.1493C220.024 85.2542 220.243 85.3071 220.464 85.3029C220.686 85.2987 220.903 85.2375 221.094 85.1252C221.285 85.0129 221.445 84.8533 221.556 84.6617C221.668 84.4702 221.729 84.2531 221.732 84.0313Z" fill="white"/>
<path d="M191.516 39.8524L211.75 51.5333L210.533 65.4036C210.464 66.248 209.811 66.5682 209.037 66.1024L193.536 57.135C193.226 56.9457 192.955 56.6986 192.738 56.4071L192.768 56.8031C192.861 57.6846 193.149 58.5341 193.613 59.2897C194.076 60.0453 194.703 60.6878 195.446 61.1703L196.127 61.5605C196.383 61.6207 196.629 61.7189 196.855 61.8516C197.122 62.0133 197.367 62.209 197.583 62.4339L204.844 66.6265C205.101 66.6831 205.347 66.7815 205.572 66.9176C205.836 67.0701 206.08 67.2539 206.3 67.465L207.843 68.3559C208.015 68.4708 208.157 68.6246 208.258 68.8046C208.359 68.9847 208.417 69.186 208.426 69.3924C208.426 69.7709 208.152 69.9223 207.843 69.7359L207.721 69.6661C207.895 70.1257 207.986 70.6128 207.989 71.1043C207.989 72.6416 206.9 73.2646 205.555 72.4902C204.851 72.0312 204.266 71.413 203.846 70.6856C203.426 69.9582 203.184 69.1421 203.138 68.3035C203.126 67.9103 203.223 67.5214 203.418 67.1796L198.981 64.6175C199.151 65.0782 199.242 65.5646 199.249 66.0558C199.249 67.5989 198.154 68.2161 196.815 67.4417C196.109 66.9848 195.522 66.3671 195.102 65.6392C194.682 64.9114 194.441 64.0942 194.398 63.255C194.385 62.845 194.492 62.4401 194.707 62.0904C192.935 60.6357 191.802 58.5459 191.551 56.2674L190.176 37.6339C190.134 37.2421 190.006 36.8647 189.799 36.5292C189.592 36.1938 189.314 35.9087 188.983 35.6948L186.479 34.2449C186.308 34.1305 186.166 33.9777 186.065 33.7987C185.964 33.6198 185.906 33.4196 185.896 33.2142C185.896 32.8299 186.17 32.6785 186.479 32.8707L188.983 34.3148C189.643 34.7446 190.2 35.3162 190.612 35.988C191.024 36.6599 191.281 37.4151 191.364 38.1987L191.516 39.8524ZM202.108 59.5981L202.137 48.4879C202.121 48.2069 202.04 47.9334 201.9 47.6896C201.759 47.4458 201.563 47.2386 201.327 47.0846C200.879 46.8284 200.518 47.0322 200.512 47.5504L200.483 58.6606C200.501 58.9385 200.584 59.2083 200.725 59.4488C200.865 59.6893 201.059 59.8939 201.292 60.0465C201.741 60.3027 202.108 60.0931 202.108 59.5807V59.5981ZM205.601 61.6071L205.631 50.4968C205.615 50.2158 205.534 49.9423 205.393 49.6986C205.253 49.4548 205.057 49.2475 204.821 49.0935C204.373 48.8373 204.006 49.0411 204.006 49.5593V60.6696C204.02 60.9508 204.101 61.2246 204.242 61.4685C204.383 61.7125 204.579 61.9196 204.815 62.0729C205.264 62.3291 205.625 62.1195 205.631 61.6071H205.601ZM209.124 63.6335L209.159 52.5232C209.14 52.2442 209.056 51.9736 208.913 51.7329C208.771 51.4923 208.574 51.2883 208.338 51.1374C207.89 50.8811 207.523 51.0849 207.523 51.6032L207.494 62.7134C207.511 62.9988 207.597 63.2758 207.744 63.5211C207.891 63.7664 208.095 63.9727 208.338 64.1226C208.781 64.3788 209.148 64.1692 209.148 63.6567L209.124 63.6335ZM198.62 57.5776L198.649 46.4673C198.637 46.1854 198.558 45.9105 198.417 45.6662C198.276 45.4218 198.078 45.2152 197.839 45.064C197.391 44.8078 197.03 45.0116 197.024 45.5298V56.6401C197.04 56.921 197.121 57.1943 197.262 57.438C197.403 57.6817 197.598 57.8891 197.834 58.0434C198.282 58.2996 198.649 58.09 198.649 57.5776H198.62ZM195.155 55.5512L195.19 44.4409C195.174 44.1601 195.092 43.887 194.952 43.6434C194.811 43.3997 194.615 43.1923 194.381 43.0376C193.932 42.7814 193.565 42.9852 193.565 43.5034L193.53 54.6137C193.546 54.8939 193.627 55.1665 193.768 55.4094C193.908 55.6522 194.104 55.8584 194.34 56.0112C194.788 56.2732 195.155 56.0636 195.155 55.5512ZM196.902 63.616C196.401 63.3248 195.994 63.5578 195.988 64.1342C196.006 64.4491 196.097 64.7554 196.255 65.0285C196.413 65.3015 196.632 65.5338 196.896 65.7064C197.403 65.9976 197.804 65.7647 197.81 65.1882C197.794 64.873 197.703 64.5662 197.545 64.2929C197.387 64.0196 197.167 63.7876 196.902 63.616ZM205.636 68.6645C205.136 68.3734 204.728 68.6063 204.728 69.1827C204.743 69.4975 204.833 69.8042 204.99 70.0775C205.147 70.3508 205.366 70.583 205.631 70.7549C206.131 71.0461 206.545 70.8132 206.545 70.2309C206.527 69.9168 206.435 69.6113 206.278 69.3392C206.12 69.0671 205.9 68.8359 205.636 68.6645Z" fill="white"/>
<path d="M217.544 51.8303C217.805 51.9894 218.02 52.2143 218.167 52.4825C218.511 53.0648 218.511 53.717 218.167 53.9091L213.025 56.8206C212.925 56.8665 212.815 56.8848 212.705 56.8735C212.596 56.8622 212.491 56.8219 212.402 56.7566C212.143 56.5948 211.929 56.3706 211.779 56.1044L209.264 51.7372C208.914 51.1549 208.92 50.5027 209.264 50.3047C209.364 50.26 209.475 50.2424 209.584 50.2537C209.693 50.2649 209.798 50.3046 209.887 50.3688C210.146 50.5305 210.36 50.7548 210.51 51.0209L212.414 54.34L216.933 51.7663C217.031 51.7226 217.14 51.7055 217.247 51.7168C217.354 51.728 217.457 51.7672 217.544 51.8303Z" fill="white"/>
<path d="M213.727 46.444C217.157 48.4238 219.922 53.2219 219.911 57.1582C219.899 61.0946 217.116 62.6784 213.686 60.6986C210.256 58.7188 207.496 53.9323 207.508 49.9902C207.519 46.048 210.303 44.47 213.727 46.444ZM212.999 56.8438L218.141 53.9323C218.49 53.7401 218.49 53.0996 218.141 52.5057C217.994 52.2375 217.779 52.0126 217.518 51.8535C217.429 51.7882 217.324 51.7478 217.215 51.7366C217.105 51.7253 216.995 51.7436 216.894 51.7895L212.417 54.3399L210.518 51.0441C210.369 50.778 210.154 50.5537 209.895 50.3919C209.806 50.3278 209.702 50.2881 209.592 50.2768C209.483 50.2656 209.373 50.2832 209.272 50.3279C208.929 50.5259 208.923 51.1606 209.272 51.7603L211.788 56.1276C211.938 56.3937 212.152 56.618 212.411 56.7797C212.499 56.845 212.604 56.8854 212.714 56.8967C212.823 56.9079 212.934 56.8897 213.034 56.8438" fill="#40BFFF"/>
<path opacity="0.3" d="M213.727 46.444C217.157 48.4238 219.922 53.2219 219.911 57.1582C219.899 61.0946 217.116 62.6784 213.686 60.6986C210.256 58.7188 207.496 53.9323 207.508 49.9902C207.519 46.048 210.303 44.47 213.727 46.444ZM212.999 56.8438L218.141 53.9323C218.49 53.7401 218.49 53.0996 218.141 52.5057C217.994 52.2375 217.779 52.0126 217.518 51.8535C217.429 51.7882 217.324 51.7478 217.215 51.7366C217.105 51.7253 216.995 51.7436 216.894 51.7895L212.417 54.3399L210.518 51.0441C210.369 50.778 210.154 50.5537 209.895 50.3919C209.806 50.3278 209.702 50.2881 209.592 50.2768C209.483 50.2656 209.373 50.2832 209.272 50.3279C208.929 50.5259 208.923 51.1606 209.272 51.7603L211.788 56.1276C211.938 56.3937 212.152 56.618 212.411 56.7797C212.499 56.845 212.604 56.8854 212.714 56.8967C212.823 56.9079 212.934 56.8897 213.034 56.8438" fill="white"/>
<path d="M101.961 29.5583C101.553 28.12 98.6299 25.3832 95.7184 25.4415C95.4395 25.4502 95.164 25.5053 94.9032 25.6045L38.4261 57.7182C37.4816 58.255 36.7238 59.0677 36.2542 60.0474C35.8815 60.7825 35.6823 61.5933 35.6719 62.4174V184.612C35.6719 187.722 39.2588 190.692 42.6303 189.271C42.7069 189.249 42.781 189.22 42.8516 189.183L99.3344 156.994C100.162 156.521 100.85 155.838 101.328 155.014C101.807 154.19 102.059 153.254 102.06 152.301V30.1464C102.072 29.9454 102.038 29.7441 101.961 29.5583Z" fill="#455A64"/>
<path d="M43.5508 75.3434C43.5527 74.8696 43.6796 74.4046 43.9189 73.9956C44.1582 73.5866 44.5012 73.2481 44.9134 73.0142L97.3842 43.1598C97.589 43.0429 97.8208 42.9817 98.0567 42.9822C98.2925 42.9827 98.5241 43.0449 98.7284 43.1627C98.9328 43.2804 99.1027 43.4496 99.2213 43.6535C99.34 43.8573 99.4032 44.0886 99.4047 44.3244V142.849C99.3999 143.322 99.2717 143.786 99.0327 144.195C98.7938 144.603 98.4523 144.942 98.0422 145.178L45.5946 175.085C45.3898 175.202 45.158 175.263 44.9221 175.263C44.6863 175.262 44.4547 175.2 44.2504 175.082C44.046 174.965 43.8761 174.795 43.7575 174.592C43.6388 174.388 43.5756 174.156 43.5741 173.921L43.5508 75.3434Z" fill="#40BFFF"/>
<path opacity="0.2" d="M43.5508 75.3434C43.5527 74.8696 43.6796 74.4046 43.9189 73.9956C44.1582 73.5866 44.5012 73.2481 44.9134 73.0142L97.3842 43.1598C97.589 43.0429 97.8208 42.9817 98.0567 42.9822C98.2925 42.9827 98.5241 43.0449 98.7284 43.1627C98.9328 43.2804 99.1027 43.4496 99.2213 43.6535C99.34 43.8573 99.4032 44.0886 99.4047 44.3244V142.849C99.3999 143.322 99.2717 143.786 99.0327 144.195C98.7938 144.603 98.4523 144.942 98.0422 145.178L45.5946 175.085C45.3898 175.202 45.158 175.263 44.9221 175.263C44.6863 175.262 44.4547 175.2 44.2504 175.082C44.046 174.965 43.8761 174.795 43.7575 174.592C43.6388 174.388 43.5756 174.156 43.5741 173.921L43.5508 75.3434Z" fill="black"/>
<path opacity="0.1" d="M43.5508 75.3434C43.5527 74.8696 43.6796 74.4046 43.9189 73.9956C44.1582 73.5866 44.5012 73.2481 44.9134 73.0142L97.3842 43.1598C97.589 43.0429 97.8208 42.9817 98.0567 42.9822C98.2925 42.9827 98.5241 43.0449 98.7284 43.1627C98.9328 43.2804 99.1027 43.4496 99.2213 43.6535C99.34 43.8573 99.4032 44.0886 99.4047 44.3244V142.849C99.3999 143.322 99.2717 143.786 99.0327 144.195C98.7938 144.603 98.4523 144.942 98.0422 145.178L45.5946 175.085C45.3898 175.202 45.158 175.263 44.9221 175.263C44.6863 175.262 44.4547 175.2 44.2504 175.082C44.046 174.965 43.8761 174.795 43.7575 174.592C43.6388 174.388 43.5756 174.156 43.5741 173.921L43.5508 75.3434Z" fill="white"/>
<path opacity="0.3" d="M35.6953 62.4281V184.612C35.6953 187.721 39.2823 190.691 42.6538 189.27C42.4514 189.344 42.2342 189.368 42.0205 189.34C41.8068 189.312 41.603 189.233 41.4264 189.11C41.2498 188.986 41.1056 188.822 41.006 188.631C40.9065 188.44 40.8545 188.228 40.8545 188.012V65.8054C40.8689 64.7396 41.1992 63.702 41.8036 62.8241L36.2543 60.0465C35.888 60.7871 35.6967 61.6019 35.6953 62.4281Z" fill="black"/>
<path opacity="0.1" d="M95.7239 25.4348C95.445 25.4435 95.1695 25.4986 94.9087 25.5978L38.4259 57.7173C37.4813 58.2541 36.7235 59.0668 36.2539 60.0465L41.8032 62.8241C42.2634 62.1053 42.8882 61.5065 43.6258 61.0772L100.109 28.946C100.268 28.8542 100.445 28.7963 100.629 28.7761C100.812 28.7558 100.997 28.7735 101.173 28.8282C101.349 28.8828 101.512 28.9732 101.651 29.0937C101.791 29.2142 101.904 29.3621 101.984 29.5283C101.559 28.1133 98.6354 25.3765 95.7239 25.4348Z" fill="white"/>
<path d="M78.4459 49.1459C78.8477 48.9188 79.1738 49.0993 79.1738 49.5535C79.1586 49.8038 79.0855 50.0472 78.9602 50.2645C78.8349 50.4818 78.6609 50.6669 78.4517 50.8054L67.3881 57.2107C66.9921 57.4436 66.6719 57.2514 66.6719 56.7914C66.6852 56.5444 66.7565 56.3039 66.8799 56.0895C67.0033 55.875 67.1754 55.6926 67.3823 55.557L78.4459 49.1459Z" fill="#263238"/>
<path d="M64.5111 57.1875C64.9071 56.9604 65.2273 57.1409 65.2273 57.6009C65.2133 57.85 65.1412 58.0925 65.0169 58.3088C64.8925 58.5252 64.7193 58.7095 64.5111 58.847C64.1151 59.0741 63.7891 58.8878 63.7891 58.4336C63.8014 58.1834 63.8734 57.9397 63.999 57.723C64.1246 57.5062 64.3002 57.3226 64.5111 57.1875Z" fill="#263238"/>
<path d="M71.6179 48.2201C72.4098 47.76 73.0504 48.1269 73.0504 49.0353C73.0257 49.5329 72.8836 50.0176 72.6356 50.4498C72.3877 50.882 72.0409 51.2493 71.6238 51.5217C70.8318 51.9817 70.1738 51.609 70.1738 50.6948C70.2031 50.1979 70.3492 49.7148 70.6001 49.2848C70.851 48.8549 71.1997 48.4901 71.6179 48.2201Z" fill="#263238"/>
<path d="M71.6163 163.241C73.2351 162.31 74.5278 163.055 74.5278 164.907C74.4762 165.922 74.1856 166.91 73.6797 167.791C73.1737 168.673 72.4667 169.422 71.6163 169.978C70.0033 170.91 68.664 170.147 68.6582 168.29C68.7185 167.275 69.0179 166.288 69.532 165.411C70.0461 164.534 70.7603 163.79 71.6163 163.241Z" fill="#263238"/>
<path d="M99.23 41.611L118.306 57.4436L111.353 61.4615L92.2832 45.6288L99.23 41.611Z" fill="#40BFFF"/>
<path d="M85.3296 49.6467L104.4 65.4736L97.4472 69.4914L78.3828 53.6646L85.3296 49.6467Z" fill="#40BFFF"/>
<path d="M78.3823 53.6646L97.4467 69.4914L90.4941 73.5092L71.4297 57.6824L78.3823 53.6646Z" fill="white"/>
<path d="M92.2827 45.6288L111.353 61.4614L104.4 65.4735L85.3301 49.6466L92.2827 45.6288Z" fill="white"/>
<path d="M57.5288 65.7123L76.5874 81.5391L69.6348 85.557L50.5762 69.7301L57.5288 65.7123Z" fill="#40BFFF"/>
<path d="M71.4292 57.6824L90.4936 73.5092L83.541 77.5212L64.4766 61.6944L71.4292 57.6824Z" fill="#40BFFF"/>
<path d="M43.498 73.8237L50.5788 69.7301L69.6374 85.5569L62.5392 89.6563L43.498 73.8237Z" fill="white"/>
<path d="M64.4781 61.6943L83.5425 77.5212L76.5898 81.539L57.5312 65.7122L64.4781 61.6943Z" fill="white"/>
<path d="M118.306 57.4437L111.354 61.4616C111.353 61.9327 111.477 62.3957 111.712 62.804C111.947 63.2123 112.285 63.5515 112.693 63.7876C113.101 64.0236 113.564 64.1482 114.035 64.1487C114.506 64.1493 114.969 64.0258 115.377 63.7908C116.264 63.2727 116.999 62.5312 117.51 61.6403C118.021 60.7494 118.289 59.7401 118.289 58.7131L118.306 57.4437Z" fill="#40BFFF"/>
<path d="M111.353 61.4614L104.4 65.4793C104.4 65.9504 104.523 66.4134 104.759 66.8217C104.994 67.23 105.332 67.5692 105.74 67.8053C106.148 68.0413 106.61 68.1659 107.082 68.1664C107.553 68.167 108.016 68.0435 108.424 67.8085C109.312 67.2913 110.048 66.55 110.559 65.6589C111.07 64.7678 111.338 63.7581 111.336 62.7308L111.353 61.4614Z" fill="#E0E0E0"/>
<path d="M104.4 65.4794L97.4473 69.4914C97.4468 69.9626 97.5703 70.4255 97.8055 70.8338C98.0406 71.2421 98.379 71.5813 98.7868 71.8174C99.1946 72.0534 99.6573 72.178 100.128 72.1785C100.6 72.1791 101.063 72.0557 101.471 71.8206C102.358 71.3034 103.095 70.5621 103.606 69.671C104.117 68.7799 104.384 67.7702 104.382 66.743L104.4 65.4794Z" fill="#40BFFF"/>
<path d="M97.4448 69.4913L90.4922 73.5092C90.49 73.981 90.6124 74.4451 90.8471 74.8544C91.0818 75.2638 91.4205 75.6038 91.8288 75.8402C92.2372 76.0766 92.7008 76.2009 93.1726 76.2006C93.6445 76.2003 94.1079 76.0753 94.5159 75.8384C95.403 75.3221 96.1388 74.5819 96.6498 73.6918C97.1608 72.8017 97.4289 71.7929 97.4274 70.7666L97.4448 69.4913Z" fill="#E0E0E0"/>
<path d="M90.4956 73.5092L83.543 77.5154C83.5425 77.9865 83.666 78.4495 83.9012 78.8578C84.1363 79.2661 84.4748 79.6053 84.8825 79.8413C85.2903 80.0774 85.753 80.2019 86.2242 80.2025C86.6953 80.2031 87.1583 80.0796 87.5666 79.8446C88.4542 79.3274 89.1903 78.5861 89.7012 77.695C90.2122 76.8039 90.4801 75.7941 90.4781 74.7669L90.4956 73.5092Z" fill="#40BFFF"/>
<path d="M83.5425 77.5154L76.5898 81.5274C76.5894 81.9986 76.7129 82.4615 76.948 82.8698C77.1832 83.2781 77.5216 83.6173 77.9294 83.8534C78.3372 84.0894 78.7999 84.214 79.271 84.2146C79.7422 84.2151 80.2052 84.0917 80.6135 83.8566C81.5003 83.3385 82.2357 82.5971 82.7466 81.7061C83.2574 80.8152 83.5258 79.806 83.525 78.779L83.5425 77.5154Z" fill="#E0E0E0"/>
<path d="M76.5874 81.5391L69.6348 85.5569C69.6325 86.0288 69.7549 86.4928 69.9897 86.9022C70.2244 87.3115 70.563 87.6516 70.9714 87.888C71.3798 88.1244 71.8433 88.2487 72.3152 88.2483C72.787 88.248 73.2504 88.1231 73.6585 87.8861C74.5488 87.3721 75.2872 86.6315 75.7986 85.7397C76.3099 84.8478 76.5761 83.8365 76.57 82.8085L76.5874 81.5391Z" fill="#40BFFF"/>
<path opacity="0.2" d="M118.306 57.4437L111.354 61.4616C111.353 61.9327 111.477 62.3957 111.712 62.804C111.947 63.2123 112.285 63.5515 112.693 63.7876C113.101 64.0236 113.564 64.1482 114.035 64.1487C114.506 64.1493 114.969 64.0258 115.377 63.7908C116.264 63.2727 116.999 62.5312 117.51 61.6403C118.021 60.7494 118.289 59.7401 118.289 58.7131L118.306 57.4437Z" fill="black"/>
<path opacity="0.2" d="M104.4 65.4794L97.4473 69.4914C97.4468 69.9626 97.5703 70.4255 97.8055 70.8338C98.0406 71.2421 98.379 71.5813 98.7868 71.8174C99.1946 72.0534 99.6573 72.178 100.128 72.1785C100.6 72.1791 101.063 72.0557 101.471 71.8206C102.358 71.3034 103.095 70.5621 103.606 69.671C104.117 68.7799 104.384 67.7702 104.382 66.743L104.4 65.4794Z" fill="black"/>
<path opacity="0.2" d="M90.4956 73.5092L83.543 77.5154C83.5425 77.9865 83.666 78.4495 83.9012 78.8578C84.1363 79.2661 84.4748 79.6053 84.8825 79.8413C85.2903 80.0774 85.753 80.2019 86.2242 80.2025C86.6953 80.2031 87.1583 80.0796 87.5666 79.8446C88.4542 79.3274 89.1903 78.5861 89.7012 77.695C90.2122 76.8039 90.4801 75.7941 90.4781 74.7669L90.4956 73.5092Z" fill="black"/>
<path opacity="0.2" d="M76.5874 81.5391L69.6348 85.5569C69.6325 86.0288 69.7549 86.4928 69.9897 86.9022C70.2244 87.3115 70.563 87.6516 70.9714 87.888C71.3798 88.1244 71.8433 88.2487 72.3152 88.2483C72.787 88.248 73.2504 88.1231 73.6585 87.8861C74.5488 87.3721 75.2872 86.6315 75.7986 85.7397C76.3099 84.8478 76.5761 83.8365 76.57 82.8085L76.5874 81.5391Z" fill="black"/>
<path d="M69.6353 85.557L62.5371 89.6331C62.5355 90.1041 62.658 90.5672 62.8924 90.9757C63.1268 91.3842 63.4648 91.7237 63.8723 91.9599C64.2798 92.1961 64.7423 92.3207 65.2133 92.3211C65.6843 92.3216 66.1471 92.1978 66.555 91.9623C67.4922 91.4212 68.2703 90.6428 68.811 89.7054C69.3518 88.768 69.6361 87.7048 69.6353 86.6226V85.557Z" fill="#E0E0E0"/>
<path d="M77.7402 106.048C75.6778 106.292 73.677 106.91 71.8357 107.871C67.5428 110.085 64.2626 113.861 62.6703 118.422C61.9797 120.38 61.6502 122.448 61.6979 124.524C62.1556 122.562 62.8172 120.654 63.6719 118.829C65.5838 114.742 68.5987 111.269 72.3772 108.802C74.065 107.701 75.8622 106.778 77.7402 106.048Z" fill="#40BFFF"/>
<path d="M72.3034 136.537C71.1715 136.518 70.0495 136.321 68.9785 135.955C67.7883 135.56 66.6895 134.931 65.7473 134.103C64.805 133.276 64.0385 132.268 63.4932 131.139C62.9889 130.126 62.6489 129.039 62.4859 127.919C62.3641 129.091 62.5176 130.276 62.9342 131.378C63.4033 132.662 64.1878 133.808 65.2155 134.709C66.2432 135.611 67.4812 136.239 68.8154 136.537C69.9622 136.809 71.1566 136.809 72.3034 136.537Z" fill="#40BFFF"/>
<path d="M81.3283 117.81C81.442 119.362 81.4186 120.921 81.2585 122.469C80.8898 125.966 79.7439 129.336 77.9044 132.333C77.0875 133.665 76.1541 134.922 75.1152 136.089C76.4529 135.194 77.6334 134.084 78.609 132.804C80.8679 129.856 82.0955 126.247 82.1028 122.533C82.106 120.927 81.8443 119.331 81.3283 117.81Z" fill="#40BFFF"/>
<path d="M63.0756 111.382C61.668 112.736 60.5178 114.334 59.6808 116.098C57.709 120.193 57.3798 124.888 58.7608 129.218C59.3492 131.081 60.2662 132.824 61.4685 134.365C60.7042 132.628 60.1189 130.817 59.7216 128.961C58.8504 124.805 59.1528 120.489 60.595 116.494C61.2405 114.708 62.072 112.994 63.0756 111.382Z" fill="#40BFFF"/>
<path d="M85.3164 112.069C85.1676 110.479 84.5967 108.957 83.6627 107.661C82.6024 106.131 81.1189 104.943 79.3938 104.242C77.6687 103.542 75.7769 103.36 73.95 103.719C72.3782 104.003 70.9097 104.698 69.6934 105.734C71.0609 105.063 72.5424 104.656 74.0606 104.534C75.7359 104.38 77.4236 104.63 78.9827 105.262C80.5417 105.894 81.9268 106.891 83.0221 108.168C84.0255 109.312 84.8038 110.636 85.3164 112.069Z" fill="#40BFFF"/>
<path d="M110.292 93.8197C112.136 93.6322 113.984 94.1483 115.464 95.2647C116.944 96.3812 117.948 98.0156 118.275 99.8407L120.977 114.98L137.922 126.83L134.137 131.436L118.019 122.97C117.07 122.471 116.23 121.788 115.548 120.96C114.867 120.132 114.359 119.176 114.053 118.148L108.859 100.627L110.292 93.8197Z" fill="#FFA8A7"/>
<path d="M116.581 110.089C118.078 109.292 119.277 108.032 119.999 106.496L118.479 99.5554C118.091 97.7928 117.069 96.2344 115.606 95.1767C114.144 94.1191 112.343 93.6362 110.548 93.8198L110.292 93.8489L108.859 100.668L111.095 110.706C112.939 111.167 114.886 110.948 116.581 110.089Z" fill="#455A64"/>
<path d="M116.581 110.089C114.886 110.948 112.939 111.167 111.096 110.706L111.678 113.181C113.78 113.653 119.166 113.496 120.57 109.047L119.987 106.485C119.271 108.023 118.076 109.287 116.581 110.089Z" fill="#455A64"/>
<path opacity="0.2" d="M116.581 110.089C118.078 109.292 119.277 108.032 119.999 106.496L118.479 99.5554C118.091 97.7928 117.069 96.2344 115.606 95.1767C114.144 94.1191 112.343 93.6362 110.548 93.8198L110.292 93.8489L108.859 100.668L111.095 110.706C112.939 111.167 114.886 110.948 116.581 110.089Z" fill="white"/>
<path opacity="0.5" d="M116.581 110.089C114.886 110.948 112.939 111.167 111.096 110.706L111.678 113.181C113.78 113.653 119.166 113.496 120.57 109.047L119.987 106.485C119.271 108.023 118.076 109.287 116.581 110.089Z" fill="white"/>
<path d="M114.043 100.336C114.043 100.336 113.367 95.1824 110.293 93.8373C110.293 93.8373 102.932 96.0442 96.83 98.3617C94.4165 99.2418 92.0528 100.253 89.7492 101.39C88.3634 102.589 84.3863 106.159 82.5171 107.119C81.604 107.576 80.6191 107.871 79.6056 107.993C78.3251 108.198 77.0957 108.647 75.9837 109.315C70.382 112.552 65.8576 120.378 65.8751 126.824C65.8751 131.046 67.8549 133.602 70.7838 133.958H70.9177C71.3803 134.007 71.8468 134.007 72.3094 133.958C77.4045 133.911 85.5742 133.87 88.7826 132.95C103.771 128.548 115.557 117.694 114.043 100.336Z" fill="#455A64"/>
<path d="M99.7582 98.2219L101.953 94.239L110.787 100.19L107.293 104.883C106.56 105.243 105.759 105.445 104.943 105.479C104.127 105.512 103.313 105.374 102.553 105.076C101.802 104.729 101.13 104.232 100.579 103.615C100.028 102.998 99.6099 102.274 99.3506 101.489C99.1956 100.945 99.1518 100.375 99.2218 99.8138C99.2919 99.2525 99.4743 98.7111 99.7582 98.2219Z" fill="#FFA8A7"/>
<path opacity="0.2" d="M102.781 94.7922C102.781 99.5904 106.595 101.838 108.924 102.688L110.788 100.19L102.781 94.7922Z" fill="black"/>
<path d="M98.7918 90.0056C98.4657 88.0899 98.1338 86.1217 98.5064 84.2118C98.8791 82.3018 100.114 80.4385 102 79.8795C102.383 79.063 102.931 78.3347 103.61 77.7404C104.288 77.1461 105.083 76.6987 105.942 76.4265C107.628 75.9663 109.372 75.7545 111.119 75.7976C113.046 75.6821 114.981 75.7896 116.884 76.1178C118.801 76.4604 120.544 77.4487 121.822 78.9187C122.477 79.8206 122.941 80.8463 123.188 81.9334C123.434 83.0205 123.456 84.1463 123.254 85.2424C122.836 87.4332 122.025 89.5302 120.861 91.4323C117.157 91.6943 113.384 92.1194 109.681 92.3814C107.794 92.5793 105.893 92.5968 104.003 92.4338C102.075 92.1222 100.271 91.2816 98.7918 90.0056Z" fill="#263238"/>
<path d="M121.466 81.1256C122.415 86.8244 121.787 92.6742 119.65 98.0414C119.155 99.2817 118.485 100.569 117.35 101.227C116.214 101.885 114.63 101.78 113.273 101.57C111.029 101.315 108.841 100.699 106.792 99.7475C104.731 98.775 103.124 97.0434 102.309 94.9145C101.575 95.0623 100.813 94.9953 100.116 94.7216C99.4192 94.448 98.8158 93.9792 98.3783 93.3714C97.5183 92.1099 97.0726 90.612 97.103 89.0856C97.103 88.1132 97.2835 86.9661 98.157 86.541C99.0304 86.1159 99.9388 86.5876 100.643 87.1582C101.798 88.0977 102.643 89.3642 103.066 90.7918C103.706 88.4218 104.702 86.1334 105.343 83.8042C105.599 82.8725 105.925 81.8593 106.723 81.3411C107.712 80.7064 109.005 81.0674 110.152 81.3411C113.881 82.2333 117.775 82.1591 121.466 81.1256Z" fill="#FFA8A7"/>
<path d="M114.571 88.3054L117.337 92.958L114.041 93.581L114.571 88.3054Z" fill="#F28F8F"/>
<path d="M110.864 95.1823L113.368 96.3993C113.154 96.6847 112.853 96.8921 112.51 96.99C112.167 97.0878 111.802 97.0705 111.47 96.9408C111.183 96.7612 110.966 96.4887 110.856 96.1686C110.746 95.8486 110.749 95.5004 110.864 95.1823Z" fill="#F28F8F"/>
<path opacity="0.3" d="M110.864 95.1823L113.368 96.3993C113.154 96.6847 112.853 96.8921 112.51 96.99C112.167 97.0878 111.802 97.0705 111.47 96.9408C111.183 96.7612 110.966 96.4887 110.856 96.1686C110.746 95.8486 110.749 95.5004 110.864 95.1823Z" fill="black"/>
<path d="M112.336 97.0224C112.045 97.0815 111.744 97.0531 111.469 96.9408C111.238 96.812 111.052 96.6175 110.932 96.382C110.813 96.1466 110.767 95.881 110.799 95.619C111.158 95.6197 111.507 95.7407 111.789 95.9626C112.102 96.2314 112.298 96.6114 112.336 97.0224Z" fill="#F28F8F"/>
<path d="M109.798 88.4917C109.779 88.6786 109.816 88.8669 109.904 89.0326C109.993 89.1984 110.128 89.3342 110.294 89.4229C110.459 89.5116 110.648 89.5492 110.835 89.5309C111.022 89.5126 111.199 89.4392 111.344 89.3201C111.489 89.201 111.596 89.0415 111.65 88.8617C111.705 88.682 111.705 88.4901 111.65 88.3104C111.596 88.1306 111.489 87.9712 111.344 87.8521C111.198 87.7331 111.021 87.6598 110.834 87.6416C110.584 87.6172 110.334 87.693 110.14 87.8524C109.946 88.0117 109.823 88.2417 109.798 88.4917Z" fill="#263238"/>
<path d="M117.741 88.9809C117.722 89.1664 117.759 89.3532 117.847 89.5178C117.934 89.6823 118.069 89.8173 118.233 89.9056C118.397 89.9939 118.584 90.0315 118.769 90.0138C118.955 89.9962 119.131 89.9239 119.275 89.8062C119.42 89.6884 119.526 89.5305 119.581 89.3524C119.636 89.1742 119.637 88.9838 119.584 88.8052C119.53 88.6266 119.425 88.4677 119.282 88.3487C119.138 88.2297 118.963 88.1559 118.778 88.1366C118.654 88.1237 118.529 88.1353 118.41 88.1708C118.291 88.2063 118.18 88.265 118.084 88.3434C117.988 88.4219 117.908 88.5186 117.849 88.628C117.79 88.7374 117.753 88.8573 117.741 88.9809Z" fill="#263238"/>
<path d="M119.033 85.324L120.978 86.9777C121.095 86.7279 121.132 86.4484 121.085 86.1767C121.038 85.9051 120.91 85.6542 120.716 85.4579C120.476 85.2811 120.191 85.1748 119.894 85.1512C119.596 85.1275 119.298 85.1874 119.033 85.324Z" fill="#263238"/>
<path d="M111.286 85.196L109.056 86.4305C108.991 86.1629 109.009 85.8818 109.108 85.6247C109.206 85.3677 109.382 85.147 109.609 84.9922C109.88 84.8671 110.181 84.82 110.477 84.856C110.773 84.892 111.053 85.0097 111.286 85.196Z" fill="#263238"/>
<path d="M123.238 83.0414C115.137 84.3381 106.882 84.3381 98.7812 83.0414C99.1597 73.1423 103.614 69.8989 111.301 69.8989C118.987 69.8989 123.325 74.0216 123.238 83.0414Z" fill="#455A64"/>
<path d="M123.238 83.0415C123.238 79.2507 122.504 76.3392 121.066 74.2255L117.846 73.3229C116.33 72.8972 114.739 72.8137 113.187 73.0784L110.119 73.5908C109.068 73.7598 108.102 74.267 107.366 75.0352C106.631 75.8035 106.166 76.7909 106.042 77.8474L105.338 83.8217C111.315 84.2521 117.321 83.9903 123.238 83.0415Z" fill="#455A64"/>
<path opacity="0.29" d="M123.238 83.0415C123.238 79.2507 122.504 76.3392 121.066 74.2255L117.846 73.3229C116.33 72.8972 114.739 72.8137 113.187 73.0784L110.119 73.5908C109.068 73.7598 108.102 74.267 107.366 75.0352C106.631 75.8035 106.166 76.7909 106.042 77.8474L105.338 83.8217C111.315 84.2521 117.321 83.9903 123.238 83.0415Z" fill="white"/>
<path d="M124.195 74.7087H122.774C122.314 74.7087 121.86 74.7087 121.406 74.7612C117.24 75.064 113.292 76.739 110.179 79.5243L105.393 83.8217C111.35 84.2476 117.337 83.9857 123.234 83.0414L126.349 79.2623C126.681 78.8532 126.89 78.3589 126.952 77.8363C127.015 77.3137 126.929 76.7841 126.704 76.3083C126.478 75.8325 126.124 75.43 125.68 75.147C125.236 74.864 124.721 74.7121 124.195 74.7087Z" fill="#455A64"/>
<path opacity="0.2" d="M124.195 74.7087H122.774C122.314 74.7087 121.86 74.7087 121.406 74.7612C117.24 75.064 113.292 76.739 110.179 79.5243L105.393 83.8217C111.35 84.2476 117.337 83.9857 123.234 83.0414L126.349 79.2623C126.681 78.8532 126.89 78.3589 126.952 77.8363C127.015 77.3137 126.929 76.7841 126.704 76.3083C126.478 75.8325 126.124 75.43 125.68 75.147C125.236 74.864 124.721 74.7121 124.195 74.7087Z" fill="black"/>
<path d="M148.812 127.628L127.104 140.24L105.256 127.628L126.958 115.01L148.812 127.628Z" fill="#40BFFF"/>
<g opacity="0.3">
<path opacity="0.3" d="M148.812 127.628L127.104 140.24L105.256 127.628L126.958 115.01L148.812 127.628Z" fill="white"/>
</g>
<path d="M148.811 127.628L148.747 149.709L127.039 162.321L127.103 140.24L148.811 127.628Z" fill="#40BFFF"/>
<g opacity="0.1">
<path opacity="0.1" d="M148.811 127.628L148.747 149.709L127.039 162.321L127.103 140.24L148.811 127.628Z" fill="white"/>
</g>
<path d="M127.103 140.24L127.039 162.321L105.191 149.709L105.255 127.628L127.103 140.24Z" fill="#40BFFF"/>
<path d="M130.883 126.009L138.231 121.52L134.481 119.354L127.104 123.756L130.883 126.009Z" fill="#E0E0E0"/>
<path d="M130.881 126.009L127.102 123.756L119.607 119.284L115.869 121.456L123.317 126.009L127.102 128.321L137.094 134.435L141.1 132.106L130.881 126.009Z" fill="white"/>
<path d="M123.319 126.009L113.059 132.129L117.076 134.452L127.104 128.321L123.319 126.009Z" fill="#E0E0E0"/>
<path d="M141.102 132.106L137.096 134.435L137.131 134.452L137.189 156.423L141.242 154.07L141.183 132.147L141.102 132.106Z" fill="#E0E0E0"/>
<path d="M117.076 134.453L113.058 132.129L113.023 132.147L112.959 154.198L117.012 156.533L117.076 134.453Z" fill="white"/>
<path opacity="0.2" d="M117.076 134.453L113.058 132.129L113.023 132.147L112.959 154.198L117.012 156.533L117.076 134.453Z" fill="black"/>
<path d="M127.091 132.682L122.549 135.46L127.091 138.086L131.621 135.454L127.091 132.682Z" fill="white"/>
<path d="M84.1181 131.919C84.1181 131.919 85.8125 107.259 86.1677 105.716C87.5245 99.8523 96.026 100.272 96.8354 106.234C97.1673 108.668 93.2834 132.304 93.2834 132.304L107.352 147.187L110.199 149.802L112.738 149.289L118.526 149.837C118.68 149.852 118.825 149.917 118.938 150.022C119.052 150.127 119.128 150.267 119.155 150.419C119.192 150.599 119.158 150.787 119.061 150.943C118.963 151.099 118.809 151.212 118.631 151.258L114.805 152.189L117.565 154.076C117.952 154.341 118.391 154.522 118.852 154.606L123.179 155.427C123.37 155.462 123.541 155.566 123.66 155.72C123.78 155.874 123.838 156.066 123.825 156.259C123.816 156.413 123.763 156.561 123.672 156.685C123.581 156.808 123.456 156.904 123.312 156.958L120.983 157.826C119.474 158.392 117.86 158.626 116.252 158.512C114.644 158.397 113.08 157.937 111.667 157.162L106.659 154.379C105.924 153.984 105.232 153.515 104.592 152.981L86.6394 138.133C85.7348 137.389 85.0304 136.431 84.59 135.346C84.1497 134.261 83.9875 133.083 84.1181 131.919Z" fill="#FFA8A7"/>
<path d="M96.6083 122.469L98.4076 109.076C98.5193 108.163 98.4501 107.238 98.2039 106.352C97.9578 105.466 97.5396 104.637 96.9732 103.913C96.4068 103.188 95.7033 102.583 94.9029 102.13C94.1024 101.678 93.2207 101.388 92.3081 101.276C91.3954 101.164 90.4697 101.234 89.5838 101.48C88.6979 101.726 87.8691 102.144 87.1449 102.71C86.4206 103.277 85.8149 103.98 85.3625 104.781C84.9101 105.581 84.6198 106.463 84.5082 107.376L83.0059 121.042C85.0464 122.221 87.3127 122.956 89.6567 123.198C92.0007 123.441 94.3695 123.187 96.6083 122.451V122.469Z" fill="#455A64"/>
<path opacity="0.2" d="M96.6083 122.469L98.4076 109.076C98.5193 108.163 98.4501 107.238 98.2039 106.352C97.9578 105.466 97.5396 104.637 96.9732 103.913C96.4068 103.188 95.7033 102.583 94.9029 102.13C94.1024 101.678 93.2207 101.388 92.3081 101.276C91.3954 101.164 90.4697 101.234 89.5838 101.48C88.6979 101.726 87.8691 102.144 87.1449 102.71C86.4206 103.277 85.8149 103.98 85.3625 104.781C84.9101 105.581 84.6198 106.463 84.5082 107.376L83.0059 121.042C85.0464 122.221 87.3127 122.956 89.6567 123.198C92.0007 123.441 94.3695 123.187 96.6083 122.451V122.469Z" fill="white"/>
<path d="M89.3816 123.185C87.1267 122.908 84.9494 122.186 82.9764 121.06L82.6328 124.21C88.6829 128.868 96.1014 125.992 96.1014 125.992L96.5788 122.469C94.2584 123.219 91.8043 123.463 89.3816 123.185Z" fill="#455A64"/>
<path opacity="0.5" d="M89.3816 123.185C87.1267 122.908 84.9494 122.186 82.9764 121.06L82.6328 124.21C88.6829 128.868 96.1014 125.992 96.1014 125.992L96.5788 122.469C94.2584 123.219 91.8043 123.463 89.3816 123.185Z" fill="white"/>
<path d="M246.735 168.22L256.18 168.499L265.624 168.22C266.026 174.625 264.786 181.1 263.068 184.274C262.662 185.088 262.007 185.753 261.199 186.172C258.41 187.785 253.909 187.785 251.137 186.172C250.318 185.745 249.663 185.059 249.274 184.221C247.562 181.03 246.333 174.567 246.735 168.22Z" fill="white"/>
<path d="M249.524 164.353C245.827 166.49 245.803 169.955 249.478 172.092C253.152 174.229 259.132 174.223 262.835 172.092C266.539 169.961 266.556 166.49 262.876 164.353C259.196 162.216 253.222 162.216 249.524 164.353Z" fill="#EBEBEB"/>
<path d="M250.987 165.203C248.075 166.869 248.075 169.571 250.952 171.242C253.828 172.913 258.487 172.907 261.375 171.242C264.263 169.577 264.287 166.869 261.404 165.203C258.522 163.538 253.875 163.538 250.987 165.203Z" fill="#E0E0E0"/>
<g opacity="0.15">
<path opacity="0.15" d="M250.987 165.203C248.075 166.869 248.075 169.571 250.952 171.242C253.828 172.913 258.487 172.907 261.375 171.242C264.263 169.577 264.287 166.869 261.404 165.203C258.522 163.538 253.875 163.538 250.987 165.203Z" fill="black"/>
</g>
<path d="M260.995 148.899C262.532 146.989 264.314 145.277 265.723 143.274C266.684 141.906 267.47 140.229 267.08 138.616C266.856 137.87 266.429 137.203 265.845 136.688C265.261 136.173 264.545 135.833 263.778 135.704C262.227 135.473 260.646 135.826 259.341 136.694C258.048 137.557 256.913 138.637 255.987 139.885C250.667 146.621 248.151 155.15 248.964 163.695C248.984 164.674 249.29 165.625 249.844 166.432C250.183 166.83 250.629 167.123 251.13 167.276C251.63 167.428 252.164 167.435 252.668 167.294C255.242 166.531 254.898 163.055 255.317 161.011C255.896 158.205 256.893 155.502 258.275 152.993C259.059 151.55 259.969 150.18 260.995 148.899Z" fill="#40BFFF"/>
<path opacity="0.2" d="M260.995 148.899C262.532 146.989 264.314 145.277 265.723 143.274C266.684 141.906 267.47 140.229 267.08 138.616C266.856 137.87 266.429 137.203 265.845 136.688C265.261 136.173 264.545 135.833 263.778 135.704C262.227 135.473 260.646 135.826 259.341 136.694C258.048 137.557 256.913 138.637 255.987 139.885C250.667 146.621 248.151 155.15 248.964 163.695C248.984 164.674 249.29 165.625 249.844 166.432C250.183 166.83 250.629 167.123 251.13 167.276C251.63 167.428 252.164 167.435 252.668 167.294C255.242 166.531 254.898 163.055 255.317 161.011C255.896 158.205 256.893 155.502 258.275 152.993C259.059 151.55 259.969 150.18 260.995 148.899Z" fill="white"/>
<path d="M252.506 164.685C252.556 164.675 252.601 164.648 252.634 164.609C252.667 164.57 252.685 164.521 252.687 164.47C252.867 160.341 254.212 146.25 263.925 138.266C263.949 138.248 263.968 138.226 263.982 138.2C263.997 138.174 264.005 138.145 264.008 138.116C264.011 138.086 264.008 138.056 263.998 138.028C263.989 138 263.974 137.974 263.954 137.952C263.936 137.929 263.913 137.909 263.888 137.895C263.862 137.881 263.834 137.872 263.804 137.868C263.775 137.865 263.745 137.868 263.717 137.876C263.689 137.885 263.663 137.898 263.64 137.917C253.781 146.034 252.419 160.295 252.238 164.47C252.237 164.529 252.258 164.587 252.299 164.63C252.339 164.674 252.395 164.7 252.454 164.703L252.506 164.685Z" fill="#F0F0F0"/>
<path d="M251.088 165.128C251.291 166.031 251.675 166.885 252.216 167.636C252.758 168.388 253.446 169.022 254.238 169.501C255.724 170.208 257.378 170.487 259.013 170.304C260.668 170.109 262.295 169.718 263.858 169.14C264.638 168.878 265.5 168.528 265.605 167.562C265.616 167.309 265.573 167.057 265.477 166.823C265.382 166.588 265.236 166.378 265.052 166.205C264.894 166.049 264.727 165.903 264.551 165.768C264.47 165.708 264.409 165.624 264.377 165.528C264.345 165.432 264.343 165.329 264.371 165.232C264.4 165.134 264.458 165.048 264.536 164.985C264.615 164.922 264.712 164.884 264.813 164.877C265.276 164.846 265.737 164.787 266.193 164.703C267.263 164.536 268.269 164.083 269.104 163.393C269.71 162.856 270.171 162.175 270.444 161.413C270.677 160.761 270.746 159.945 270.251 159.462C269.946 159.208 269.574 159.046 269.18 158.996C268.836 158.92 268.487 158.856 268.144 158.804C268.044 158.789 267.952 158.743 267.882 158.671C267.812 158.599 267.767 158.506 267.754 158.406C267.742 158.307 267.762 158.206 267.813 158.119C267.863 158.032 267.94 157.964 268.033 157.925L269.5 157.313C269.922 157.176 270.304 156.938 270.612 156.62C270.802 156.325 270.926 155.992 270.974 155.644C271.022 155.296 270.994 154.942 270.892 154.606C270.711 153.686 270.397 152.801 270.182 151.892C269.921 150.997 269.879 150.053 270.059 149.138C267.314 148.832 264.535 149.018 261.855 149.685C261.048 149.853 260.285 150.186 259.613 150.664C258.699 151.397 258.448 152.492 258.559 153.686C258.563 153.734 258.549 153.782 258.522 153.822C258.494 153.861 258.453 153.89 258.406 153.903C258.36 153.916 258.31 153.913 258.265 153.893C258.221 153.874 258.185 153.839 258.163 153.796L257.249 152.049C257.112 151.8 256.884 151.613 256.614 151.527C256.343 151.44 256.049 151.46 255.793 151.584C254.971 151.995 254.242 152.57 253.65 153.272C253.323 153.644 253.073 154.078 252.916 154.548C252.759 155.018 252.698 155.515 252.736 156.009C252.849 157.367 253.077 158.713 253.417 160.033C253.44 160.108 253.437 160.188 253.411 160.262C253.384 160.336 253.335 160.399 253.27 160.442C253.205 160.486 253.127 160.508 253.049 160.504C252.971 160.501 252.896 160.472 252.835 160.423H252.794C252.542 160.228 252.226 160.136 251.909 160.167C251.082 160.266 250.873 161.104 250.814 161.82C250.773 162.93 250.865 164.04 251.088 165.128Z" fill="#40BFFF"/>
<path opacity="0.2" d="M251.088 165.128C251.291 166.031 251.675 166.885 252.216 167.636C252.758 168.388 253.446 169.022 254.238 169.501C255.724 170.208 257.378 170.487 259.013 170.304C260.668 170.109 262.295 169.718 263.858 169.14C264.638 168.878 265.5 168.528 265.605 167.562C265.616 167.309 265.573 167.057 265.477 166.823C265.382 166.588 265.236 166.378 265.052 166.205C264.894 166.049 264.727 165.903 264.551 165.768C264.47 165.708 264.409 165.624 264.377 165.528C264.345 165.432 264.343 165.329 264.371 165.232C264.4 165.134 264.458 165.048 264.536 164.985C264.615 164.922 264.712 164.884 264.813 164.877C265.276 164.846 265.737 164.787 266.193 164.703C267.263 164.536 268.269 164.083 269.104 163.393C269.71 162.856 270.171 162.175 270.444 161.413C270.677 160.761 270.746 159.945 270.251 159.462C269.946 159.208 269.574 159.046 269.18 158.996C268.836 158.92 268.487 158.856 268.144 158.804C268.044 158.789 267.952 158.743 267.882 158.671C267.812 158.599 267.767 158.506 267.754 158.406C267.742 158.307 267.762 158.206 267.813 158.119C267.863 158.032 267.94 157.964 268.033 157.925L269.5 157.313C269.922 157.176 270.304 156.938 270.612 156.62C270.802 156.325 270.926 155.992 270.974 155.644C271.022 155.296 270.994 154.942 270.892 154.606C270.711 153.686 270.397 152.801 270.182 151.892C269.921 150.997 269.879 150.053 270.059 149.138C267.314 148.832 264.535 149.018 261.855 149.685C261.048 149.853 260.285 150.186 259.613 150.664C258.699 151.397 258.448 152.492 258.559 153.686C258.563 153.734 258.549 153.782 258.522 153.822C258.494 153.861 258.453 153.89 258.406 153.903C258.36 153.916 258.31 153.913 258.265 153.893C258.221 153.874 258.185 153.839 258.163 153.796L257.249 152.049C257.112 151.8 256.884 151.613 256.614 151.527C256.343 151.44 256.049 151.46 255.793 151.584C254.971 151.995 254.242 152.57 253.65 153.272C253.323 153.644 253.073 154.078 252.916 154.548C252.759 155.018 252.698 155.515 252.736 156.009C252.849 157.367 253.077 158.713 253.417 160.033C253.44 160.108 253.437 160.188 253.411 160.262C253.384 160.336 253.335 160.399 253.27 160.442C253.205 160.486 253.127 160.508 253.049 160.504C252.971 160.501 252.896 160.472 252.835 160.423H252.794C252.542 160.228 252.226 160.136 251.909 160.167C251.082 160.266 250.873 161.104 250.814 161.82C250.773 162.93 250.865 164.04 251.088 165.128Z" fill="black"/>
<path opacity="0.2" d="M251.088 165.128C251.291 166.031 251.675 166.885 252.216 167.636C252.758 168.388 253.446 169.022 254.238 169.501C255.724 170.208 257.378 170.487 259.013 170.304C260.668 170.109 262.295 169.718 263.858 169.14C264.638 168.878 265.5 168.528 265.605 167.562C265.616 167.309 265.573 167.057 265.477 166.823C265.382 166.588 265.236 166.378 265.052 166.205C264.894 166.049 264.727 165.903 264.551 165.768C264.47 165.708 264.409 165.624 264.377 165.528C264.345 165.432 264.343 165.329 264.371 165.232C264.4 165.134 264.458 165.048 264.536 164.985C264.615 164.922 264.712 164.884 264.813 164.877C265.276 164.846 265.737 164.787 266.193 164.703C267.263 164.536 268.269 164.083 269.104 163.393C269.71 162.856 270.171 162.175 270.444 161.413C270.677 160.761 270.746 159.945 270.251 159.462C269.946 159.208 269.574 159.046 269.18 158.996C268.836 158.92 268.487 158.856 268.144 158.804C268.044 158.789 267.952 158.743 267.882 158.671C267.812 158.599 267.767 158.506 267.754 158.406C267.742 158.307 267.762 158.206 267.813 158.119C267.863 158.032 267.94 157.964 268.033 157.925L269.5 157.313C269.922 157.176 270.304 156.938 270.612 156.62C270.802 156.325 270.926 155.992 270.974 155.644C271.022 155.296 270.994 154.942 270.892 154.606C270.711 153.686 270.397 152.801 270.182 151.892C269.921 150.997 269.879 150.053 270.059 149.138C267.314 148.832 264.535 149.018 261.855 149.685C261.048 149.853 260.285 150.186 259.613 150.664C258.699 151.397 258.448 152.492 258.559 153.686C258.563 153.734 258.549 153.782 258.522 153.822C258.494 153.861 258.453 153.89 258.406 153.903C258.36 153.916 258.31 153.913 258.265 153.893C258.221 153.874 258.185 153.839 258.163 153.796L257.249 152.049C257.112 151.8 256.884 151.613 256.614 151.527C256.343 151.44 256.049 151.46 255.793 151.584C254.971 151.995 254.242 152.57 253.65 153.272C253.323 153.644 253.073 154.078 252.916 154.548C252.759 155.018 252.698 155.515 252.736 156.009C252.849 157.367 253.077 158.713 253.417 160.033C253.44 160.108 253.437 160.188 253.411 160.262C253.384 160.336 253.335 160.399 253.27 160.442C253.205 160.486 253.127 160.508 253.049 160.504C252.971 160.501 252.896 160.472 252.835 160.423H252.794C252.542 160.228 252.226 160.136 251.909 160.167C251.082 160.266 250.873 161.104 250.814 161.82C250.773 162.93 250.865 164.04 251.088 165.128Z" fill="white"/>
<path d="M255.439 169.28C255.954 167.075 256.693 164.928 257.646 162.874C257.647 162.842 257.654 162.811 257.667 162.782C257.68 162.753 257.698 162.727 257.722 162.705L257.879 162.374C257.61 159.817 256.867 157.333 255.689 155.048C255.661 154.996 255.654 154.935 255.669 154.878C255.684 154.82 255.721 154.771 255.771 154.74C255.823 154.71 255.885 154.703 255.943 154.719C256.001 154.736 256.05 154.774 256.08 154.827C257.183 156.955 257.912 159.258 258.234 161.634C260.103 157.884 263.085 153.482 267.685 150.302C267.734 150.269 267.795 150.256 267.854 150.267C267.913 150.278 267.965 150.311 267.999 150.361C268.016 150.385 268.027 150.412 268.033 150.44C268.039 150.469 268.04 150.498 268.034 150.527C268.029 150.556 268.018 150.583 268.002 150.608C267.986 150.632 267.965 150.653 267.941 150.669C263.195 153.977 260.202 158.554 258.385 162.35C260.834 161.244 263.551 160.876 266.206 161.29C266.265 161.303 266.316 161.338 266.35 161.388C266.384 161.438 266.397 161.499 266.386 161.558C266.377 161.602 266.355 161.643 266.323 161.674C266.291 161.705 266.25 161.726 266.206 161.733H266.118C266.078 161.733 261.786 160.947 258.071 163.02C257.125 165.053 256.391 167.178 255.882 169.361C255.871 169.404 255.849 169.444 255.817 169.475C255.785 169.506 255.745 169.527 255.701 169.536H255.614C255.557 169.524 255.507 169.491 255.474 169.443C255.441 169.395 255.429 169.337 255.439 169.28Z" fill="#F0F0F0"/>
<path d="M40.2457 187.517L29.4964 187.832L18.7531 187.517C18.2872 194.773 19.708 202.168 21.6645 205.784C22.1263 206.714 22.8729 207.473 23.7958 207.95C26.9635 209.784 32.0877 209.784 35.2379 207.95C36.173 207.467 36.9208 206.686 37.3633 205.731C39.3023 202.092 40.7057 194.738 40.2457 187.517Z" fill="white"/>
<path d="M37.0723 183.115C41.2823 185.549 41.3056 189.485 37.1247 191.919C32.9438 194.353 26.1368 194.347 21.9268 191.919C17.7168 189.491 17.6935 185.549 21.8744 183.115C26.0553 180.681 32.8623 180.687 37.0723 183.115Z" fill="#EBEBEB"/>
<path d="M35.3951 184.076C38.6792 185.974 38.6967 189.049 35.4359 190.947C32.175 192.845 26.8644 192.839 23.5803 190.947C20.2961 189.054 20.2787 185.974 23.5395 184.076C26.8004 182.177 32.1226 182.189 35.3951 184.076Z" fill="#E0E0E0"/>
<g opacity="0.15">
<path opacity="0.15" d="M35.3951 184.076C38.6792 185.974 38.6967 189.049 35.4359 190.947C32.175 192.845 26.8644 192.839 23.5803 190.947C20.2961 189.054 20.2787 185.974 23.5395 184.076C26.8004 182.177 32.1226 182.189 35.3951 184.076Z" fill="black"/>
</g>
<path d="M47.1696 141.661C22.9518 149.592 22.7131 165.792 28.1925 177.327C29.5667 179.656 33.736 180.92 37.3579 166.572L30.9992 167.387L38.4118 163.626L40.3392 157.872L34.1552 158.332L42.0046 155.031C43.4482 150.472 45.1732 146.007 47.1696 141.661Z" fill="#40BFFF"/>
<path opacity="0.2" d="M47.1696 141.661C22.9518 149.592 22.7131 165.792 28.1925 177.327C29.5667 179.656 33.736 180.92 37.3579 166.572L30.9992 167.387L38.4118 163.626L40.3392 157.872L34.1552 158.332L42.0046 155.031C43.4482 150.472 45.1732 146.007 47.1696 141.661Z" fill="black"/>
<path opacity="0.2" d="M47.1696 141.661C22.9518 149.592 22.7131 165.792 28.1925 177.327C29.5667 179.656 33.736 180.92 37.3579 166.572L30.9992 167.387L38.4118 163.626L40.3392 157.872L34.1552 158.332L42.0046 155.031C43.4482 150.472 45.1732 146.007 47.1696 141.661Z" fill="white"/>
<path d="M40.3172 145.714C27.5474 155.403 26.3945 166.519 30.0047 178.119C28.7295 167.905 27.3495 157.575 40.3172 145.714Z" fill="white"/>
<path d="M6.15234 158.117C30.0265 161.477 32.938 176.529 29.747 188.181C28.8561 190.586 25.1818 192.449 19.4229 179.685L25.4963 179.417L17.9264 177.123L15.1779 172.08L21.0009 171.498L13.1457 169.751C11.0539 165.734 8.71837 161.849 6.15234 158.117Z" fill="#40BFFF"/>
<path opacity="0.2" d="M6.15234 158.117C30.0265 161.477 32.938 176.529 29.747 188.181C28.8561 190.586 25.1818 192.449 19.4229 179.685L25.4963 179.417L17.9264 177.123L15.1779 172.08L21.0009 171.498L13.1457 169.751C11.0539 165.734 8.71837 161.849 6.15234 158.117Z" fill="white"/>
<path opacity="0.1" d="M6.15234 158.117C30.0265 161.477 32.938 176.529 29.747 188.181C28.8561 190.586 25.1818 192.449 19.4229 179.685L25.4963 179.417L17.9264 177.123L15.1779 172.08L21.0009 171.498L13.1457 169.751C11.0539 165.734 8.71837 161.849 6.15234 158.117Z" fill="black"/>
<path d="M13.2031 160.784C26.7066 167.69 29.6239 177.845 28.1915 189.247C27.6849 179.493 27.2423 169.646 13.2031 160.784Z" fill="white"/>
<path d="M54.1512 163.759C32.2626 164.115 27.9478 177.356 29.52 188.216C30.0557 190.481 33.1594 192.571 39.7801 181.712L34.3472 180.768L41.3872 179.563L44.4326 175.341L39.2385 174.148L46.5173 173.431C48.8609 170.054 51.4103 166.824 54.1512 163.759Z" fill="#40BFFF"/>
<path d="M47.5012 165.343C34.5567 170.054 30.7892 178.888 30.8067 189.322C32.3498 180.617 33.8405 171.789 47.5012 165.343Z" fill="white"/>
<path opacity="0.2" d="M54.1512 163.759C32.2626 164.115 27.9478 177.356 29.52 188.216C30.0557 190.481 33.1594 192.571 39.7801 181.712L34.3472 180.768L41.3872 179.563L44.4326 175.341L39.2385 174.148L46.5173 173.431C48.8609 170.054 51.4103 166.824 54.1512 163.759Z" fill="white"/>
<path d="M180.388 141.883C174.641 145.877 168.16 148.637 163.368 153.989C154.406 163.981 154.197 180.064 161.237 191.494C168.277 202.925 181.373 209.79 194.707 211.362C208.682 213.016 223.374 209.15 234.35 200.299C245.326 191.448 252.308 177.677 252.302 163.614C252.296 149.552 245.082 135.501 233.284 127.803C222.518 120.815 207.052 118.783 196.25 126.813C190.794 130.889 187.149 136.869 181.693 140.945C181.297 141.26 180.854 141.568 180.388 141.883Z" fill="#40BFFF"/>
<path opacity="0.2" d="M180.388 141.883C174.641 145.877 168.16 148.637 163.368 153.989C154.406 163.981 154.197 180.064 161.237 191.494C168.277 202.925 181.373 209.79 194.707 211.362C208.682 213.016 223.374 209.15 234.35 200.299C245.326 191.448 252.308 177.677 252.302 163.614C252.296 149.552 245.082 135.501 233.284 127.803C222.518 120.815 207.052 118.783 196.25 126.813C190.794 130.889 187.149 136.869 181.693 140.945C181.297 141.26 180.854 141.568 180.388 141.883Z" fill="black"/>
<path opacity="0.1" d="M180.388 141.883C174.641 145.877 168.16 148.637 163.368 153.989C154.406 163.981 154.197 180.064 161.237 191.494C168.277 202.925 181.373 209.79 194.707 211.362C208.682 213.016 223.374 209.15 234.35 200.299C245.326 191.448 252.308 177.677 252.302 163.614C252.296 149.552 245.082 135.501 233.284 127.803C222.518 120.815 207.052 118.783 196.25 126.813C190.794 130.889 187.149 136.869 181.693 140.945C181.297 141.26 180.854 141.568 180.388 141.883Z" fill="white"/>
<path opacity="0.1" d="M182.752 200.444C182.752 200.345 182.781 200.252 182.793 200.159C183.273 197.046 184.712 194.161 186.909 191.904C189.106 189.648 191.952 188.133 195.05 187.57C200.606 186.512 205.929 184.475 210.773 181.555C214.202 179.482 217.446 176.937 221.295 175.813C225.041 174.738 229.041 174.97 232.638 176.471C229.4 173.076 223.857 171.58 219.425 173.117C222.488 168.418 225.19 163.364 226.25 157.855C227.31 152.347 226.553 146.297 223.234 141.778C221.82 139.846 219.996 138.251 217.892 137.11C215.787 135.968 213.456 135.308 211.066 135.176C208.675 135.045 206.286 135.446 204.069 136.349C201.852 137.253 199.864 138.638 198.247 140.404C194.957 144.002 193.106 149.068 190.945 153.436C189.391 156.574 187.789 159.788 185.227 162.17C181.372 165.78 175.817 167.079 171.834 170.532C167.298 174.451 165.342 180.71 165.324 186.702C165.394 190.745 165.981 194.763 167.071 198.657C171.761 203.135 177.356 206.557 183.48 208.69C182.592 206.037 182.343 203.212 182.752 200.444Z" fill="black"/>
<path d="M244.82 161.675C244.638 151.95 241.015 142.605 234.594 135.299C228.173 127.993 219.37 123.2 209.749 121.77C208.414 121.903 207.089 122.125 205.783 122.434C215.902 122.971 225.442 127.321 232.483 134.608C239.523 141.895 243.543 151.579 243.732 161.71C243.994 174.818 237.577 188.181 226.577 197.451C217.959 204.719 206.511 209.54 193.922 211.269C194.19 211.31 194.463 211.345 194.731 211.374C195.861 211.508 196.996 211.601 198.138 211.665C209.318 209.493 219.444 204.887 227.253 198.272C238.526 188.787 245.083 175.109 244.82 161.675Z" fill="white"/>
<path d="M177.676 210.081L179.12 212.941C181.152 211.054 181.525 209.534 181.525 209.534C180.867 207.205 180.098 204.835 179.714 203.682C179.522 205.289 178.427 206.669 177.967 208.236C177.798 208.837 177.7 209.457 177.676 210.081Z" fill="#37474F"/>
<path d="M177.745 213.01L179.119 212.941L177.675 210.081C177.634 211.048 177.716 212.026 177.745 213.01Z" fill="#263238"/>
<path d="M178.793 200.31C178.295 199.589 177.723 198.922 177.087 198.319C177.436 199.568 177.426 200.89 177.058 202.133C176.633 203.787 175.858 205.341 175.468 207.007C174.997 209.033 175.107 211.211 174.245 213.109C173.819 214.03 173.184 214.84 172.391 215.472C171.597 216.105 170.667 216.544 169.674 216.755C168.942 216.958 168.159 216.864 167.497 216.492C167.218 216.295 167.014 216.01 166.914 215.683C166.483 216.586 165.958 217.44 165.348 218.234C164.673 219.107 163.828 220.074 164.015 221.145C164.124 221.592 164.365 221.997 164.704 222.308C165.044 222.619 165.469 222.822 165.924 222.892C166.836 223.02 167.766 222.942 168.644 222.665C170.574 222.248 172.416 221.497 174.088 220.446C175.773 219.37 177.004 217.712 177.547 215.788C177.745 214.86 177.816 213.91 177.757 212.964C177.757 211.985 177.646 211.001 177.687 210.052C177.709 209.428 177.805 208.808 177.972 208.206C178.438 206.64 179.533 205.26 179.719 203.653C179.719 203.565 179.748 203.484 179.754 203.397C179.767 202.292 179.431 201.212 178.793 200.31Z" fill="#455A64"/>
<path opacity="0.1" d="M178.793 200.31C178.295 199.589 177.723 198.922 177.087 198.319C177.436 199.568 177.426 200.89 177.058 202.133C176.633 203.787 175.858 205.341 175.468 207.007C174.997 209.033 175.107 211.211 174.245 213.109C173.819 214.03 173.184 214.84 172.391 215.472C171.597 216.105 170.667 216.544 169.674 216.755C168.942 216.958 168.159 216.864 167.497 216.492C167.218 216.295 167.014 216.01 166.914 215.683C166.483 216.586 165.958 217.44 165.348 218.234C164.673 219.107 163.828 220.074 164.015 221.145C164.124 221.592 164.365 221.997 164.704 222.308C165.044 222.619 165.469 222.822 165.924 222.892C166.836 223.02 167.766 222.942 168.644 222.665C170.574 222.248 172.416 221.497 174.088 220.446C175.773 219.37 177.004 217.712 177.547 215.788C177.745 214.86 177.816 213.91 177.757 212.964C177.757 211.985 177.646 211.001 177.687 210.052C177.709 209.428 177.805 208.808 177.972 208.206C178.438 206.64 179.533 205.26 179.719 203.653C179.719 203.565 179.748 203.484 179.754 203.397C179.767 202.292 179.431 201.212 178.793 200.31Z" fill="black"/>
<path d="M169.676 216.755C170.669 216.544 171.599 216.105 172.392 215.472C173.186 214.84 173.821 214.03 174.247 213.109C175.109 211.211 174.998 209.033 175.47 207.007C175.86 205.342 176.634 203.787 177.06 202.133C177.427 200.89 177.437 199.568 177.089 198.319C176.926 198.156 176.763 197.993 176.594 197.836C174.136 199.105 171.353 200.165 169.111 201.784C169.159 204.651 168.976 207.517 168.564 210.355C168.259 212.199 167.701 213.992 166.904 215.683C167.003 216.01 167.208 216.295 167.487 216.493C167.816 216.678 168.18 216.797 168.555 216.842C168.931 216.887 169.312 216.857 169.676 216.755Z" fill="#AB6160"/>
<path d="M161.33 209.196C160.928 211.566 159.111 216.393 159.111 216.393C159.111 216.393 167.619 216.737 167.811 216.347L170.309 212.48L161.33 209.196Z" fill="#C48281"/>
<path d="M186.793 152.783L165.103 164.86C163.135 165.956 161.562 167.642 160.604 169.681C159.646 171.719 159.352 174.007 159.763 176.221L163.973 198.93L160.52 209.907C163.501 213.901 170.343 214.105 170.343 214.105C174.163 206.448 176.964 203.199 179.13 196.782C181.296 190.365 182.746 185.939 182.746 185.939L200.798 181.013C204.921 179.892 208.613 177.561 211.398 174.32C214.183 171.08 215.932 167.079 216.421 162.834C216.729 160.109 216.741 158.251 216.741 158.251L186.793 152.783Z" fill="#455A64"/>
<path opacity="0.2" d="M185.337 159.928C185.34 162.351 186.2 164.694 187.765 166.543L174.087 175.085C171.838 176.492 170.171 178.663 169.394 181.199L163.973 198.93L168.864 179.185C169.427 176.913 170.856 174.953 172.847 173.723L185.355 166.025C183.911 162.415 185.337 159.928 185.337 159.928Z" fill="black"/>
<path d="M163.729 227.399L163.926 230.59C166.541 229.658 167.478 228.406 167.478 228.406C167.787 226.001 168.014 223.521 168.119 222.31C167.304 223.713 165.755 224.551 164.713 225.803C164.319 226.292 163.988 226.828 163.729 227.399Z" fill="#37474F"/>
<path d="M162.643 230.112L163.929 230.59L163.731 227.399C163.312 228.267 162.998 229.204 162.643 230.112Z" fill="#263238"/>
<path d="M168.592 218.845C168.418 217.988 168.156 217.151 167.811 216.347C167.64 217.631 167.111 218.842 166.286 219.841C165.243 221.192 163.916 222.315 162.908 223.69C161.674 225.373 160.917 227.416 159.386 228.82C158.631 229.5 157.728 229.995 156.749 230.266C155.769 230.537 154.74 230.576 153.743 230.38C152.992 230.277 152.312 229.882 151.851 229.28C151.667 228.988 151.585 228.644 151.618 228.301C150.867 228.966 150.049 229.552 149.178 230.048C148.211 230.59 147.052 231.143 146.796 232.22C146.727 232.671 146.792 233.132 146.983 233.546C147.173 233.96 147.481 234.309 147.868 234.55C148.654 235.026 149.538 235.321 150.453 235.411C152.393 235.787 154.383 235.821 156.334 235.51C158.301 235.188 160.08 234.151 161.33 232.599C161.88 231.824 162.32 230.978 162.641 230.083C162.996 229.175 163.31 228.237 163.729 227.37C163.99 226.801 164.32 226.267 164.714 225.78C165.756 224.522 167.305 223.684 168.12 222.286C168.161 222.216 168.213 222.147 168.254 222.065C168.704 221.054 168.822 219.927 168.592 218.845Z" fill="#455A64"/>
<path d="M153.744 230.386C154.741 230.582 155.77 230.543 156.749 230.272C157.729 230.001 158.631 229.506 159.386 228.826C160.918 227.422 161.675 225.378 162.909 223.695C163.917 222.321 165.238 221.197 166.286 219.846C167.112 218.847 167.64 217.637 167.812 216.353L167.55 215.712C164.79 215.916 161.809 215.782 159.113 216.399C158.032 219.055 156.737 221.617 155.24 224.062C154.238 225.642 153.019 227.073 151.618 228.313C151.586 228.656 151.667 229 151.851 229.291C152.314 229.891 152.993 230.284 153.744 230.386Z" fill="#C48281"/>
<path d="M209.062 120.716C212.597 112.499 212.806 103.23 209.644 94.8622C208.631 92.2186 207.199 89.6216 204.852 88.0086C201.847 85.9822 197.963 86.0113 194.341 86.1161C192.42 86.1744 190.458 86.2326 188.652 86.8964C187.753 87.2019 186.941 87.7214 186.287 88.4101C185.633 89.0989 185.156 89.9362 184.897 90.8502C182.527 90.4135 180.139 92.2827 179.499 94.606C178.858 96.9294 179.697 99.4566 181.17 101.366C182.643 103.276 184.664 104.645 186.737 105.897C185.491 106.549 184.571 108.051 184.14 109.391C183.709 110.736 183.811 112.195 184.425 113.467C183.309 113.478 182.223 113.831 181.314 114.479C180.405 115.127 179.717 116.037 179.342 117.089C179.039 118.141 178.992 119.25 179.206 120.324C179.42 121.398 179.888 122.405 180.57 123.261C181.961 124.968 183.877 126.168 186.02 126.673C188.153 127.171 190.357 127.29 192.531 127.023C194.778 129.2 198.895 129.154 201.719 127.803C204.543 126.452 207.81 123.581 209.062 120.716Z" fill="#263238"/>
<path d="M188.943 115.248H188.389C184.692 115.289 180.01 117.811 177.722 124.262L168.836 141.475L178.98 145.97L184.529 129.724L188.943 115.248Z" fill="#C48281"/>
<path d="M181.815 126.673C181.11 128.705 181.064 130.895 180.953 133.078C180.843 135.262 180.592 137.818 179.608 139.734C178.524 138.983 177.225 138.603 175.907 138.651C174.588 138.7 173.321 139.173 172.294 140.002C171.557 140.625 170.991 141.427 170.652 142.331L178.979 146.023L184.528 129.777L187.259 120.821C186.01 121.389 184.886 122.198 183.952 123.202C183.017 124.207 182.291 125.386 181.815 126.673Z" fill="#AB6160"/>
<path d="M179.073 142.873C178.689 141.914 178.066 141.069 177.262 140.42C176.459 139.771 175.503 139.338 174.485 139.163C172.453 138.831 170.153 139.897 168.837 141.493C167.73 142.826 167.905 144.637 168.604 146.227C169.188 147.46 170.181 148.453 171.414 149.037C172.648 149.621 174.046 149.76 175.37 149.429C177.99 148.69 180.063 145.406 179.073 142.873Z" fill="#C48281"/>
<path d="M189.874 114.934C185.961 115.557 183.533 125.456 182.263 129.218C180.947 133.102 182.735 135.92 184.726 138.267C185.086 138.693 185.353 139.19 185.511 139.725C185.668 140.26 185.712 140.823 185.64 141.376L181.553 156.673C192.791 165.017 211.634 160.976 216.747 158.251C216.806 152.907 215.679 147.617 213.445 142.762C211.94 139.626 211.092 136.216 210.953 132.741L210.761 127.127L212.118 117.438L202.358 115.109L193.758 114.724C192.46 114.721 191.163 114.791 189.874 114.934Z" fill="#40BFFF"/>
<path opacity="0.4" d="M189.874 114.934C185.961 115.557 183.533 125.456 182.263 129.218C180.947 133.102 182.735 135.92 184.726 138.267C185.086 138.693 185.353 139.19 185.511 139.725C185.668 140.26 185.712 140.823 185.64 141.376L181.553 156.673C192.791 165.017 211.634 160.976 216.747 158.251C216.806 152.907 215.679 147.617 213.445 142.762C211.94 139.626 211.092 136.216 210.953 132.741L210.761 127.127L212.118 117.438L202.358 115.109L193.758 114.724C192.46 114.721 191.163 114.791 189.874 114.934Z" fill="black"/>
<path d="M189.789 159.13C189.789 159.13 189.789 159.13 189.789 159.095C189.789 159.061 189.789 159.061 189.789 159.026V158.991V158.962V158.927L183.151 146.564V146.529V146.495V146.46L183.121 146.419V146.378C183.092 146.337 183.092 146.337 183.063 146.297L183.028 146.262L182.999 146.221V146.192V146.163V146.134L182.9 146.046H182.865H182.836H182.801H182.76L182.72 146.017H182.673L173.985 140.835H173.939H173.898H173.851H173.81H173.77H173.729H173.694H173.653H173.607H173.566H173.519H173.403C173.36 140.836 173.318 140.852 173.286 140.881L172.378 141.923H172.407C172.331 141.982 172.326 142.104 172.436 142.308L179.074 154.67C179.446 155.242 179.949 155.717 180.542 156.056L188.176 160.353C188.566 160.574 188.805 160.58 188.84 160.417C188.84 160.417 188.84 160.475 188.84 160.487L189.754 159.445C189.757 159.429 189.757 159.414 189.754 159.398C189.757 159.385 189.757 159.371 189.754 159.357L189.789 159.13ZM172.576 141.708C172.576 141.708 172.576 141.708 172.628 141.708H172.658H172.576ZM181.31 146.64C181.38 146.698 181.456 146.757 181.52 146.821C181.474 146.757 181.398 146.698 181.328 146.64H181.31ZM181.788 147.106L181.881 147.205L181.788 147.106ZM188.875 160.202C188.864 160.114 188.836 160.029 188.793 159.951C188.833 160.022 188.86 160.099 188.875 160.179C188.875 160.179 188.869 160.167 188.875 160.202Z" fill="#455A64"/>
<path opacity="0.15" d="M189.786 159.13C189.786 159.13 189.786 159.13 189.786 159.096C189.786 159.061 189.786 159.061 189.786 159.026V158.991V158.962V158.927L183.148 146.564L182.135 147.566L188.779 159.928C188.818 159.999 188.846 160.076 188.86 160.155C188.867 160.179 188.868 160.204 188.863 160.229C188.858 160.253 188.847 160.276 188.831 160.295L189.745 159.253C189.749 159.237 189.749 159.222 189.745 159.206C189.748 159.193 189.748 159.179 189.745 159.165L189.786 159.13Z" fill="white"/>
<path opacity="0.2" d="M183.039 146.489V146.454V146.419L183.01 146.378V146.337C182.981 146.297 182.981 146.297 182.951 146.256L182.917 146.221L182.887 146.18V146.151V146.122V146.093L182.788 146.005H182.753H182.724H182.689H182.649L182.608 145.976H182.561L173.984 140.835H173.938H173.897H173.85H173.809H173.769H173.728H173.693H173.652H173.606H173.565H173.518H173.402C173.359 140.836 173.317 140.852 173.285 140.881L172.377 141.923C172.42 141.877 172.495 141.865 172.604 141.889C172.751 141.927 172.892 141.986 173.023 142.063L180.657 146.361C180.811 146.443 180.957 146.539 181.094 146.646C181.24 146.758 181.38 146.879 181.513 147.007C181.643 147.126 181.763 147.255 181.874 147.391C181.969 147.503 182.053 147.624 182.125 147.752L183.039 146.71V146.489Z" fill="white"/>
<path d="M215.864 120.675C214.781 118.818 213.36 117.391 211.205 117.228C211.205 117.228 207.712 119.045 207.712 127.29L207.945 147.921C207.438 148.125 206.931 148.34 206.431 148.55C202.172 150.382 197.72 151.727 193.16 152.562C190.782 150.674 187.823 149.669 184.787 149.72L185.91 151.817C183.779 153.185 178.958 150.722 178.958 150.722C178.603 153.727 180.553 156.848 183.139 158.426C185.724 160.004 210.379 157.686 215.608 154.303C219.049 152.079 218.234 130.807 218.234 130.807C218.471 127.269 217.646 123.741 215.864 120.675Z" fill="#C48281"/>
<path d="M173.744 144.48C173.58 145.291 173.486 146.115 173.465 146.943C173.656 148.915 174.491 150.769 175.841 152.218C176.12 152.537 176.472 152.784 176.865 152.941C177.059 153.016 177.268 153.038 177.473 153.006C177.678 152.973 177.87 152.886 178.03 152.754C178.32 152.408 178.467 151.965 178.443 151.514C178.509 150.846 178.472 150.173 178.333 149.517C178.197 148.853 177.822 148.263 177.279 147.857C176.86 147.609 176.412 147.414 175.945 147.275C175.498 147.078 175.1 146.784 174.781 146.413L173.744 144.48Z" fill="#C48281"/>
<path d="M193.727 110.899V118.69C192.965 119.412 192.231 120.239 192.161 121.269C192.148 121.763 192.271 122.25 192.516 122.679C192.762 123.107 193.12 123.46 193.553 123.698C194.434 124.164 195.463 124.264 196.418 123.977C197.362 123.686 198.228 123.184 198.951 122.51C199.976 121.562 200.802 120.421 201.382 119.151C201.962 117.882 202.283 116.51 202.328 115.115V107.213L193.727 110.899Z" fill="#C48281"/>
<path d="M201.997 107.213C201.182 111.498 199.511 115.214 193.729 116.53V110.87L201.997 107.213Z" fill="#AB6160"/>
<path d="M199.978 102.706C199.893 103.392 199.893 104.086 199.978 104.773C200.072 105.291 200.332 105.765 200.717 106.124C200.905 106.294 201.132 106.416 201.377 106.478C201.623 106.54 201.88 106.54 202.126 106.479C201.963 105.804 202.067 105.091 202.417 104.491C202.766 103.89 203.333 103.448 204.001 103.256C204.669 103.063 205.385 103.136 206 103.459C206.615 103.782 207.082 104.33 207.303 104.988C207.44 105.463 207.471 105.962 207.394 106.45C207.316 106.939 207.132 107.404 206.855 107.813C206.293 108.628 205.549 109.301 204.683 109.781C204.184 109.97 203.634 109.979 203.129 109.804C202.625 109.629 202.198 109.283 201.923 108.826C199.436 112.255 194.97 114.934 190.678 114.748C189.504 114.734 188.357 114.382 187.377 113.734C185.711 112.57 185.513 110.666 185.234 108.802C184.832 106.452 184.751 104.058 184.995 101.687C185.385 98.4142 186.701 95.1534 189.141 92.9523C190.871 99.9515 197.474 102.286 199.978 102.706Z" fill="#C48281"/>
<path d="M191.033 102.263L188.25 105.996L191.016 106.823L191.033 102.263Z" fill="#AB6160"/>
<path d="M193.589 108.482L191.336 109.297C191.495 109.559 191.736 109.762 192.02 109.875C192.305 109.988 192.618 110.006 192.914 109.926C193.175 109.799 193.384 109.586 193.507 109.323C193.63 109.061 193.659 108.764 193.589 108.482Z" fill="#AB6160"/>
<path opacity="0.3" d="M193.589 108.482L191.336 109.297C191.495 109.559 191.736 109.762 192.02 109.875C192.305 109.988 192.618 110.006 192.914 109.926C193.175 109.799 193.384 109.586 193.507 109.323C193.63 109.061 193.659 108.764 193.589 108.482Z" fill="black"/>
<path d="M192.162 109.92C192.407 109.993 192.668 109.993 192.913 109.92C193.119 109.828 193.293 109.678 193.415 109.489C193.536 109.3 193.601 109.08 193.6 108.855C193.271 108.814 192.938 108.901 192.67 109.098C192.402 109.295 192.221 109.588 192.162 109.915V109.92Z" fill="#AB6160"/>
<path d="M195.095 102.851C195.095 103.013 195.047 103.171 194.957 103.305C194.868 103.439 194.74 103.544 194.591 103.605C194.441 103.667 194.277 103.682 194.119 103.65C193.961 103.619 193.815 103.54 193.702 103.426C193.588 103.311 193.511 103.165 193.48 103.007C193.449 102.848 193.466 102.684 193.529 102.535C193.591 102.386 193.697 102.26 193.831 102.171C193.966 102.082 194.124 102.035 194.286 102.036C194.393 102.036 194.498 102.057 194.597 102.098C194.696 102.139 194.785 102.199 194.86 102.275C194.936 102.351 194.995 102.441 195.035 102.54C195.076 102.639 195.096 102.745 195.095 102.851Z" fill="#263238"/>
<path d="M188.267 102.554C188.264 102.77 188.176 102.976 188.023 103.127C187.869 103.279 187.662 103.364 187.446 103.364C187.23 103.364 187.023 103.278 186.87 103.125C186.717 102.972 186.631 102.765 186.631 102.548C186.631 102.332 186.717 102.125 186.87 101.972C187.023 101.819 187.23 101.733 187.446 101.733C187.554 101.733 187.661 101.755 187.76 101.796C187.86 101.837 187.95 101.898 188.027 101.974C188.103 102.05 188.163 102.141 188.205 102.24C188.246 102.34 188.267 102.446 188.267 102.554Z" fill="#263238"/>
<path d="M187.487 99.3168L185.676 100.557C185.599 100.333 185.593 100.091 185.657 99.8631C185.722 99.6352 185.854 99.4325 186.037 99.2818C186.258 99.1519 186.511 99.0863 186.767 99.0924C187.023 99.0986 187.272 99.1763 187.487 99.3168Z" fill="#263238"/>
<path d="M194.457 99.2469L196.256 100.505C196.336 100.282 196.346 100.039 196.285 99.8104C196.223 99.5815 196.094 99.3768 195.913 99.2236C195.692 99.0914 195.439 99.0235 195.182 99.0276C194.924 99.0318 194.673 99.1077 194.457 99.2469Z" fill="#263238"/>
</svg>
