<svg width="18" height="16" viewBox="0 0 18 16" fill="none" xmlns="http://www.w3.org/2000/svg">
<path d="M4.39728 6.79187C4.39728 8.01092 3.41769 8.99051 2.19864 8.99051C0.979592 8.99051 0 8.01092 0 6.79187H4.39728Z" fill="white"/>
<path d="M8.77228 6.79187C8.77228 8.01092 7.79269 8.99051 6.57364 8.99051C5.35459 8.99051 4.375 8.01092 4.375 6.79187H8.77228Z" fill="white"/>
<path d="M13.1473 6.79187C13.1473 8.01092 12.1677 8.99051 10.9486 8.99051C9.72959 8.99051 8.75 8.01092 8.75 6.79187H13.1473Z" fill="white"/>
<path d="M17.5457 6.79187C17.5457 8.01092 16.5661 8.99051 15.3471 8.99051C14.128 8.99051 13.1484 8.01092 13.1484 6.79187H17.5457Z" fill="white"/>
<path d="M17.5453 6.29116H0.0214844L1.54529 0H16.0215L17.5453 6.29116Z" fill="white"/>
<path d="M16.1297 16H1.41406V7.31433H2.06712V15.347H15.4766V7.31433H16.1297V16Z" fill="white"/>
<path d="M7.16283 7.88025H6.50977V15.6517H7.16283V7.88025Z" fill="white"/>
<path d="M3.11201 12.147C3.38853 12.147 3.61269 11.9228 3.61269 11.6463C3.61269 11.3698 3.38853 11.1456 3.11201 11.1456C2.83549 11.1456 2.61133 11.3698 2.61133 11.6463C2.61133 11.9228 2.83549 12.147 3.11201 12.147Z" fill="white"/>
<path d="M9.46969 12.7129C8.59894 12.7129 7.90234 12.0163 7.90234 11.1456C7.90234 10.2748 8.59894 9.57825 9.46969 9.57825C10.3404 9.57825 11.037 10.2748 11.037 11.1456C11.037 12.0163 10.3187 12.7129 9.46969 12.7129ZM9.46969 10.2531C8.96901 10.2531 8.5554 10.6667 8.5554 11.1674C8.5554 11.668 8.96901 12.0816 9.46969 12.0816C9.97037 12.0816 10.384 11.668 10.384 11.1674C10.384 10.6667 9.97037 10.2531 9.46969 10.2531Z" fill="white"/>
<path d="M13.4091 12.7129C12.5384 12.7129 11.8418 12.0163 11.8418 11.1456C11.8418 10.2748 12.5384 9.57825 13.4091 9.57825C14.2799 9.57825 14.9765 10.2748 14.9765 11.1456C14.9765 12.0163 14.2581 12.7129 13.4091 12.7129ZM13.4091 10.2531C12.9085 10.2531 12.4949 10.6667 12.4949 11.1674C12.4949 11.668 12.9085 12.0816 13.4091 12.0816C13.9098 12.0816 14.3234 11.668 14.3234 11.1674C14.3234 10.6667 13.9098 10.2531 13.4091 10.2531Z" fill="white"/>
</svg>
